<svg width="130" height="64" viewBox="0 0 130 64" fill="none" xmlns="http://www.w3.org/2000/svg">
<g clip-path="url(#clip0_6894_1579)">
<mask id="mask0_6894_1579" style="mask-type:luminance" maskUnits="userSpaceOnUse" x="0" y="0" width="130" height="64">
<path d="M130 0H0V63.2307H130V0Z" fill="white"/>
</mask>
<g mask="url(#mask0_6894_1579)">
<path d="M36.768 20.3901L38.6173 21.5334C38.6173 21.5334 33.7507 20.9187 32.776 20.2741C31.8013 19.6294 31.7473 19.3834 31.7473 19.3834C32.5003 18.985 33.3318 18.7574 34.1827 18.7167C35.1791 18.6254 36.1836 18.6807 37.164 18.8807L36.768 20.3901ZM49.6727 27.9054C48.9378 27.5987 48.1259 27.5272 47.3487 27.7007C46.506 27.904 45.6211 27.8416 44.8153 27.5221C44.044 27.1993 43.2964 26.8226 42.578 26.3947C42.578 26.3947 42.1267 28.2141 43.6447 28.7361C45.1627 29.2581 46.52 29.7361 46.9913 30.7454C47.0063 32.1993 46.5082 33.6118 45.5847 34.7347C44.548 35.8454 39.1473 36.5094 38.4293 36.5934C38.2707 36.4454 36.9507 35.1574 37.3627 33.6294C37.5821 32.7117 38.1024 31.8938 38.8407 31.3061C37.2633 30.6527 35.0233 31.9594 34.8093 34.2394L34.7547 34.2194C33.4767 33.0987 33.6093 32.3301 34.4067 30.7267C34.4067 30.7267 32.5593 30.7641 32.0733 32.0914C31.884 32.6081 31.784 32.9161 31.7327 33.1001L28.5493 31.4161C24.7153 28.9047 23.7127 25.2307 24.272 20.6301C24.5476 18.621 25.1778 16.6768 26.1333 14.8881C25.9876 14.4365 25.7489 14.0205 25.4327 13.6667C25.04 13.2667 24.3693 12.7174 23.6913 13.1481C22.6647 13.7994 23.7287 16.1674 23.7287 16.1674C19.9287 15.5967 19.602 10.6094 23.0747 10.9301C23.9805 11.0536 24.8517 11.3599 25.6356 11.8303C26.4194 12.3008 27.0995 12.9255 27.6347 13.6667L28.768 12.7701C28.768 12.7701 30.756 11.4687 34.722 11.0661C34.722 11.0661 40.372 14.3994 40.9767 16.1881C41.3418 17.1566 41.43 18.2076 41.2313 19.2234C41.2313 19.2234 46.2093 22.8961 48.044 24.6847C49.8787 26.4734 49.6713 27.9027 49.6713 27.9027M48.6713 34.0361C47.9827 35.3441 47.094 35.0727 47.094 35.0727C47.4701 34.3854 47.7677 33.6579 47.9813 32.9041C48.1213 32.3647 48.2295 31.8175 48.3053 31.2654L49.3333 30.9074C49.2844 31.9813 49.0591 33.0399 48.6667 34.0407M46.4507 38.3534C46.4507 38.4201 46.4453 38.4921 46.44 38.5607C46.44 38.5781 46.44 38.5961 46.436 38.6127C46.4313 38.6687 46.4247 38.7234 46.4173 38.7787C46.4133 38.8087 46.4093 38.8394 46.4053 38.8694V38.8741C46.3843 39.0139 46.3558 39.1526 46.32 39.2894C46.1361 39.8983 45.8171 40.4578 45.3867 40.9261C45.0784 41.2782 44.6896 41.5506 44.2533 41.7201C44.5938 40.9205 44.6432 40.0269 44.3927 39.1947C44.1947 39.5852 43.91 39.9252 43.5603 40.1885C43.2106 40.4519 42.8053 40.6317 42.3753 40.7141C41.8704 40.7643 41.3606 40.7086 40.8785 40.5505C40.3963 40.3924 39.9525 40.1355 39.5753 39.7961C39.5753 39.7961 43.8807 38.8321 46.042 36.0774C46.2002 36.6284 46.3289 37.1874 46.4273 37.7521V37.7627C46.4525 37.9588 46.4629 38.1565 46.4587 38.3541M50.682 28.0787C50.6068 27.2914 50.3854 26.525 50.0293 25.8187C49.5212 24.9458 48.8766 24.1599 48.12 23.4907C47.374 22.7941 46.7127 22.3134 45.7947 21.4981C44.6833 20.5114 42.728 19.0521 42.728 19.0521C42.8416 18.1022 42.7737 17.1393 42.528 16.2147C42.0673 14.6427 39.9493 12.6241 37.932 11.2901C39.2093 9.87008 39.7013 6.69674 38.0593 5.04274C37.4632 4.41485 36.6644 4.01772 35.804 3.92141C35.804 3.92141 38.6733 5.80008 35.6047 7.93341C35.5087 7.34741 35.3653 6.66674 35.16 5.87608C33.8133 0.67141 24.7707 -1.94926 20.6547 1.69274C25.1587 -0.293256 29.7387 2.95941 30.7527 5.73741C28.1814 4.52009 25.43 3.72716 22.6053 3.38941C18.672 2.86474 12.0773 2.84874 6.98 7.14341C1.88267 11.4381 2.70067 15.5207 2.70067 15.5207C3.47811 13.092 5.01487 10.9771 7.08467 9.48741C9.2 7.96074 14.0733 6.05274 17.9333 6.20941C19.4874 6.19476 21.0258 6.52205 22.4393 7.16808C22.1158 7.14106 21.7908 7.13616 21.4667 7.15341C-1.01334 9.78474 -6.30134 32.9014 7.8 46.0867C11.692 49.7261 14.3047 51.3534 18.89 54.2574C20.7467 55.4327 22.838 56.6574 24.588 57.8967C25.0717 58.1906 25.4841 58.5883 25.7954 59.061C26.1067 59.5337 26.3091 60.0696 26.388 60.6301C26.388 60.6301 26.914 58.6094 24.8 56.8101C23.5673 55.7607 22.5093 55.0814 20.832 53.7307C17.8436 51.4181 14.9894 48.9369 12.2833 46.2994C-2.14533 32.6001 3.98 13.2001 20.9273 9.67608C20.9273 9.67608 21.1187 9.62674 21.44 9.57941C20.6527 9.79581 19.9699 10.2892 19.5173 10.9687C19.4084 11.1372 19.316 11.3158 19.2413 11.5021C16.7021 12.9418 14.3733 14.7246 12.3207 16.8001C5.076 24.0341 6.82067 33.8154 11.1207 39.9194C14.8187 45.1681 25.4573 53.5641 27.9567 55.8454C30.7333 58.3794 30 63.2301 30 63.2301C30 63.2301 33.5333 57.7247 29.2573 52.6967C25.0233 47.7234 6.816 38.4407 12.0187 24.3594C13.4115 20.4388 16.0361 17.0744 19.5 14.7694C19.6774 15.1226 19.891 15.4564 20.1373 15.7654C20.1296 15.7721 20.1223 15.7792 20.1153 15.7867C12.6 24.4974 13.0193 30.9147 16.8613 36.1027C20.0173 40.3647 26.604 44.9914 29.766 47.6834C35.7313 52.7614 35.166 58.9561 35.166 58.9561C35.166 58.9561 39.6347 52.2547 33.0133 45.9467C27.6327 40.5287 19.454 35.8707 18.0887 28.9381C17.2613 24.7381 19.208 20.5801 21.4107 17.0667C21.4226 17.0453 21.4328 17.023 21.4413 17.0001C21.528 17.0621 21.6153 17.1234 21.708 17.1814C21.998 17.3694 22.302 17.535 22.6173 17.6767C22.3507 18.4641 22.0733 19.3374 21.796 20.3001C19.0947 29.6727 25.482 33.9161 38.0487 46.0861C38.0487 46.0861 46.0107 44.3641 47.2193 40.7401C47.5763 39.3815 47.6402 37.9625 47.4067 36.5774C48.254 36.3747 48.9968 35.8665 49.4927 35.1501C50.226 34.1694 50.6807 28.4454 50.6807 28.4454L50.6653 28.4281C50.6747 28.3127 50.6807 28.1954 50.6807 28.0741" fill="#0064DC"/>
<path d="M128.06 49.4407H130V45.7207C130 44.0087 129.019 43.0047 127.547 43.0047C127.175 42.9921 126.806 43.0683 126.47 43.2271C126.134 43.3858 125.841 43.6225 125.615 43.9174V43.0734H123.664V49.4414H125.615V45.9841C125.599 45.8138 125.618 45.642 125.672 45.4797C125.726 45.3174 125.813 45.1682 125.928 45.0416C126.043 44.915 126.183 44.8138 126.34 44.7446C126.496 44.6754 126.665 44.6396 126.836 44.6396C127.007 44.6396 127.176 44.6754 127.333 44.7446C127.489 44.8138 127.629 44.915 127.744 45.0416C127.859 45.1682 127.947 45.3174 128 45.4797C128.054 45.642 128.074 45.8138 128.057 45.9841L128.06 49.4407ZM118.043 46.2574C118.043 45.1734 118.659 44.6714 119.367 44.6714C120.051 44.6714 120.69 45.1734 120.69 46.2574C120.717 46.4519 120.703 46.65 120.648 46.8386C120.593 47.0272 120.499 47.2021 120.372 47.3518C120.245 47.5016 120.088 47.6228 119.911 47.7075C119.733 47.7922 119.54 47.8385 119.344 47.8434C118.637 47.8434 118.043 47.3301 118.043 46.2574M122.676 46.2574C122.683 45.6025 122.495 44.9603 122.136 44.4122C121.778 43.8641 121.265 43.4346 120.662 43.1782C120.06 42.9219 119.394 42.8501 118.751 42.972C118.107 43.0939 117.515 43.4039 117.047 43.863C116.58 44.322 116.26 44.9093 116.127 45.5506C115.993 46.1918 116.054 46.8582 116.299 47.4653C116.545 48.0724 116.965 48.5929 117.507 48.9609C118.049 49.3289 118.688 49.5279 119.343 49.5327C119.783 49.5601 120.223 49.4946 120.636 49.3405C121.049 49.1863 121.425 48.947 121.739 48.6381C122.054 48.3292 122.3 47.9576 122.461 47.5474C122.622 47.1372 122.696 46.6977 122.676 46.2574ZM114.143 42.4114C114.347 42.3912 114.542 42.312 114.702 42.1834C114.862 42.0548 114.982 41.8824 115.046 41.687C115.11 41.4917 115.117 41.2819 115.064 41.0832C115.011 40.8845 114.901 40.7055 114.749 40.5678C114.596 40.4302 114.406 40.3399 114.203 40.308C114 40.2761 113.792 40.3039 113.605 40.3881C113.417 40.4722 113.258 40.6091 113.147 40.782C113.035 40.9549 112.977 41.1565 112.978 41.3621C112.981 41.509 113.014 41.6537 113.075 41.7874C113.136 41.9211 113.224 42.0408 113.333 42.1392C113.442 42.2375 113.57 42.3124 113.71 42.3593C113.849 42.4061 113.996 42.4238 114.143 42.4114ZM113.161 49.4414H115.113V43.0734H113.161V49.4414ZM108.847 47.2274C108.847 48.8821 109.772 49.4414 111.095 49.4414H112.089V47.7841H111.393C110.959 47.7841 110.799 47.6241 110.799 47.2507V44.6941H112.082V43.0734H110.804V41.5214H108.853V43.0727H108.075V44.6934H108.851L108.847 47.2274ZM105.196 46.2574C105.217 46.4541 105.197 46.653 105.137 46.8416C105.078 47.0301 104.979 47.204 104.848 47.3522C104.717 47.5005 104.556 47.6197 104.377 47.7023C104.197 47.7849 104.002 47.8291 103.804 47.8321C103.606 47.8268 103.411 47.7806 103.232 47.6965C103.052 47.6124 102.892 47.4921 102.762 47.3431C102.631 47.1942 102.532 47.0199 102.472 46.8311C102.412 46.6423 102.392 46.4431 102.412 46.2461C102.392 46.0509 102.414 45.8537 102.475 45.6674C102.537 45.4811 102.637 45.3097 102.768 45.1645C102.9 45.0192 103.061 44.9033 103.241 44.8242C103.42 44.7452 103.614 44.7047 103.811 44.7055C104.007 44.7063 104.201 44.7484 104.38 44.8289C104.558 44.9094 104.718 45.0266 104.849 45.1729C104.98 45.3192 105.078 45.4914 105.138 45.6782C105.198 45.865 105.218 46.0624 105.197 46.2574M100.427 46.2461C100.427 48.2547 101.671 49.5327 103.223 49.5327C103.609 49.5509 103.994 49.4691 104.34 49.2952C104.686 49.1213 104.981 48.8612 105.197 48.5401V49.4414H107.149V43.0734H105.197V43.9754C104.985 43.6533 104.692 43.3923 104.348 43.2181C104.004 43.0439 103.62 42.9625 103.235 42.9821C101.671 42.9821 100.427 44.2374 100.427 46.2487M98.4893 42.4147C98.694 42.3947 98.8884 42.3156 99.0489 42.187C99.2095 42.0585 99.3292 41.8861 99.3935 41.6908C99.4578 41.4954 99.4639 41.2856 99.4111 41.0869C99.3583 40.8881 99.2489 40.709 99.0962 40.5713C98.9434 40.4336 98.754 40.3433 98.5508 40.3113C98.3477 40.2794 98.1396 40.3071 97.952 40.3913C97.7643 40.4754 97.6052 40.6123 97.4939 40.7853C97.3827 40.9582 97.3241 41.1598 97.3253 41.3654C97.3283 41.5122 97.3613 41.6569 97.4223 41.7904C97.4834 41.924 97.5711 42.0437 97.6802 42.142C97.7893 42.2403 97.9173 42.3153 98.0565 42.3622C98.1957 42.4091 98.343 42.427 98.4893 42.4147ZM97.508 49.4447H99.4593V43.0734H97.508V49.4447ZM90.3213 46.2574C90.2891 46.6889 90.349 47.1222 90.4971 47.5288C90.6451 47.9353 90.8779 48.3058 91.18 48.6155C91.4821 48.9252 91.8466 49.1672 92.2494 49.3253C92.6521 49.4834 93.0839 49.5541 93.516 49.5327C94.2292 49.57 94.9318 49.3479 95.494 48.9075C96.0562 48.4671 96.4401 47.8381 96.5747 47.1367H94.4973C94.4386 47.3573 94.3054 47.5507 94.1204 47.6844C93.9353 47.818 93.7098 47.8836 93.482 47.8701C92.786 47.8701 92.3067 47.3221 92.3067 46.2607C92.3067 45.1994 92.786 44.6521 93.482 44.6521C93.7088 44.6412 93.9326 44.7074 94.117 44.84C94.3013 44.9725 94.4354 45.1636 94.4973 45.3821H96.5747C96.4481 44.6767 96.0663 44.0427 95.5022 43.6008C94.9381 43.1589 94.2311 42.9401 93.516 42.9861C93.0841 42.9656 92.6528 43.037 92.2505 43.1954C91.8482 43.3539 91.4841 43.5959 91.1822 43.9054C90.8803 44.2149 90.6475 44.585 90.4991 44.9911C90.3507 45.3972 90.2901 45.8301 90.3213 46.2614M85.0627 46.2614C85.0627 45.1774 85.6787 44.6754 86.386 44.6754C87.0707 44.6754 87.71 45.1774 87.71 46.2614C87.7371 46.456 87.7228 46.6541 87.668 46.8427C87.6132 47.0314 87.5191 47.2063 87.3919 47.3561C87.2648 47.5058 87.1074 47.627 86.9302 47.7117C86.7529 47.7964 86.5597 47.8426 86.3633 47.8474C85.656 47.8474 85.0627 47.3341 85.0627 46.2614ZM89.6953 46.2614C89.702 45.6065 89.5143 44.9643 89.1558 44.4162C88.7973 43.8681 88.2843 43.4386 87.6816 43.1822C87.0789 42.9259 86.4137 42.8541 85.7702 42.976C85.1267 43.0979 84.5339 43.408 84.0667 43.867C83.5996 44.326 83.2791 44.9133 83.146 45.5546C83.0128 46.1958 83.0729 46.8622 83.3187 47.4693C83.5644 48.0764 83.9848 48.5969 84.5265 48.9649C85.0683 49.3329 85.7071 49.5319 86.362 49.5367C86.8019 49.5641 87.2427 49.4986 87.6556 49.3445C88.0685 49.1903 88.4444 48.951 88.7588 48.6421C89.0732 48.3332 89.319 47.9616 89.4804 47.5514C89.6417 47.1412 89.715 46.7017 89.6953 46.2614ZM82.3793 47.5947C82.3453 45.2207 78.8987 45.9401 78.8987 44.9241C78.8987 44.6161 79.1493 44.4334 79.606 44.4334C79.8248 44.4066 80.0453 44.467 80.2199 44.6015C80.3945 44.736 80.5093 44.9337 80.5393 45.1521H82.3393C82.2133 43.8967 81.3007 42.9834 79.6573 42.9834C77.9907 42.9834 77.0673 43.8734 77.0673 44.9581C77.0673 47.2974 80.534 46.5581 80.534 47.5821C80.534 47.8674 80.2713 48.0954 79.7693 48.0954C79.5419 48.121 79.3134 48.0584 79.1308 47.9205C78.9482 47.7825 78.8255 47.5798 78.788 47.3541H76.8687C76.96 48.5867 78.1013 49.5334 79.802 49.5334C81.402 49.5334 82.3807 48.7001 82.3807 47.5934M76.1213 47.5934C76.0873 45.2194 72.6407 45.9387 72.6407 44.9227C72.6407 44.6147 72.892 44.4321 73.348 44.4321C73.5668 44.4053 73.7873 44.4657 73.9619 44.6002C74.1365 44.7346 74.2513 44.9324 74.2813 45.1507H76.0813C75.9553 43.8954 75.0427 42.9821 73.3993 42.9821C71.7327 42.9821 70.8093 43.8721 70.8093 44.9567C70.8093 47.2961 74.276 46.5567 74.276 47.5807C74.276 47.8661 74.0133 48.0941 73.5113 48.0941C73.284 48.1195 73.0555 48.0569 72.8729 47.9189C72.6904 47.781 72.5676 47.5784 72.53 47.3527H70.6013C70.6927 48.5854 71.8333 49.5321 73.5347 49.5321C75.1347 49.5321 76.114 48.6987 76.114 47.5921M67.2993 46.5174H65.3253L66.3067 43.5841L67.2993 46.5174ZM68.2807 49.4387H70.3473L67.4487 41.4274H65.1893L62.2913 49.4387H64.334L64.8133 48.0241H67.8027L68.2807 49.4387Z" fill="#0064DC"/>
<path d="M109.001 32.6962L110.279 29.6382H108.279L107.685 32.6962H109.001ZM106.798 35.8002C106.763 33.4268 103.317 34.1462 103.317 33.1335C103.317 32.8255 103.568 32.6422 104.025 32.6422C104.243 32.6156 104.464 32.6761 104.638 32.8105C104.813 32.9449 104.928 33.1426 104.958 33.3608H106.758C106.633 32.1062 105.72 31.1922 104.077 31.1922C102.41 31.1922 101.486 32.0822 101.486 33.1668C101.486 35.5062 104.953 34.7668 104.953 35.7915C104.953 36.0768 104.69 36.3048 104.188 36.3048C103.961 36.3303 103.732 36.2675 103.549 36.1295C103.367 35.9914 103.244 35.7886 103.207 35.5628H101.278C101.37 36.7955 102.511 37.7428 104.211 37.7428C105.811 37.7428 106.791 36.9095 106.791 35.8022M98.832 34.6955C98.832 33.5995 99.3653 33.2808 100.293 33.2808H100.826V31.2142C100.424 31.2178 100.03 31.3234 99.6802 31.5211C99.3304 31.7187 99.0365 32.0019 98.826 32.3442V31.2815H96.8747V37.6488H98.826L98.832 34.6955ZM95.7473 35.5402H93.6773C93.5916 35.7345 93.4482 35.8978 93.2666 36.008C93.085 36.1181 92.874 36.1699 92.662 36.1562C92.5011 36.1602 92.341 36.1312 92.1917 36.0711C92.0424 36.011 91.9069 35.921 91.7937 35.8066C91.6804 35.6922 91.5917 35.5559 91.5331 35.406C91.4744 35.256 91.4471 35.0957 91.4527 34.9348H95.8693C95.8916 34.7454 95.9029 34.5549 95.9033 34.3642C95.9285 33.941 95.8637 33.5172 95.7131 33.1209C95.5626 32.7246 95.3297 32.3647 95.0299 32.0649C94.7302 31.7651 94.3703 31.5323 93.9739 31.3817C93.5776 31.2312 93.1539 31.1664 92.7307 31.1915C92.2969 31.1676 91.863 31.2365 91.4579 31.3934C91.0528 31.5504 90.6857 31.7918 90.3813 32.1017C90.0768 32.4116 89.8418 32.7828 89.6921 33.1907C89.5423 33.5985 89.4811 34.0335 89.5127 34.4668C89.4826 34.8998 89.5447 35.3343 89.695 35.7414C89.8453 36.1486 90.0802 36.5192 90.3844 36.8288C90.6886 37.1384 91.055 37.3799 91.4595 37.5374C91.864 37.6948 92.2972 37.7646 92.7307 37.7422C93.4103 37.7763 94.081 37.5766 94.6313 37.1763C95.1815 36.776 95.578 36.1993 95.7547 35.5422M92.7073 32.7562C92.8596 32.7424 93.0131 32.7604 93.158 32.8093C93.3029 32.8581 93.436 32.9365 93.5489 33.0396C93.6618 33.1427 93.752 33.2683 93.8137 33.4081C93.8754 33.548 93.9073 33.6993 93.9073 33.8522H91.464C91.4919 33.5452 91.6363 33.2606 91.8676 33.0567C92.0988 32.8529 92.3993 32.7454 92.7073 32.7562ZM83.2507 37.6488H85.202V34.9782L87.142 37.6488H89.5613L86.8907 34.4762L89.538 31.2815H87.13L85.2013 33.8715V29.2048H83.2507V37.6488ZM77.6273 34.4655C77.6273 33.3815 78.2433 32.8788 78.9513 32.8788C79.636 32.8788 80.2753 33.3815 80.2753 34.4655C80.3025 34.6601 80.2881 34.8582 80.2333 35.0468C80.1785 35.2355 80.0845 35.4104 79.9573 35.5602C79.8301 35.7099 79.6728 35.8311 79.4955 35.9158C79.3182 36.0005 79.1251 36.0467 78.9287 36.0515C78.2213 36.0515 77.6273 35.5382 77.6273 34.4655ZM82.2607 34.4655C82.2674 33.8106 82.0796 33.1684 81.7212 32.6203C81.3627 32.0722 80.8496 31.6427 80.247 31.3863C79.6443 31.13 78.9791 31.0582 78.3356 31.1801C77.6921 31.302 77.0992 31.6121 76.6321 32.0711C76.1649 32.5301 75.8445 33.1174 75.7113 33.7587C75.5781 34.4 75.6382 35.0663 75.884 35.6734C76.1298 36.2805 76.5501 36.801 77.0919 37.169C77.6336 37.537 78.2724 37.736 78.9273 37.7408C79.3673 37.7682 79.808 37.7027 80.2209 37.5486C80.6339 37.3945 81.0098 37.1552 81.3241 36.8462C81.6385 36.5373 81.8844 36.1657 82.0458 35.7555C82.2071 35.3454 82.2803 34.9058 82.2607 34.4655ZM73.176 34.6935C73.176 33.5975 73.7093 33.2788 74.6367 33.2788H75.17V31.2122C74.7683 31.2159 74.374 31.3215 74.0242 31.5192C73.6744 31.7168 73.3805 32 73.17 32.3422V31.2815H71.2187V37.6488H73.17L73.176 34.6935ZM70.0787 35.4695C70.0853 35.0194 69.9354 34.5809 69.6545 34.2291C69.3735 33.8773 68.9791 33.634 68.5387 33.5408C68.939 33.4363 69.2917 33.1984 69.5385 32.8665C69.7854 32.5345 69.9118 32.1283 69.8967 31.7148C69.8967 30.4482 68.9267 29.6382 67.2967 29.6382H63.6907V37.6488H67.424C69.1127 37.6488 70.0827 36.7928 70.0827 35.4695M67.9147 32.0462C67.9147 32.5935 67.5607 32.8788 66.9213 32.8788H65.6433V31.2015H66.9173C67.5567 31.2015 67.9107 31.4982 67.9107 32.0462M68.1047 35.2068C68.1047 35.7775 67.728 36.0735 67.0773 36.0735H65.6393V34.3055H67.0507C67.7007 34.3055 68.1 34.6388 68.1 35.2068" fill="#0064DC"/>
<path d="M121.367 23.7462H119.291C119.205 23.9404 119.061 24.1036 118.88 24.2137C118.698 24.3239 118.487 24.3757 118.275 24.3622C118.114 24.3663 117.954 24.3374 117.805 24.2774C117.656 24.2174 117.52 24.1274 117.407 24.0131C117.293 23.8988 117.205 23.7625 117.146 23.6126C117.087 23.4627 117.06 23.3024 117.065 23.1415H121.482C121.504 22.9521 121.516 22.7616 121.516 22.5709C121.541 22.1477 121.476 21.7239 121.326 21.3276C121.175 20.9313 120.942 20.5714 120.643 20.2716C120.343 19.9718 119.983 19.739 119.587 19.5884C119.19 19.4379 118.767 19.373 118.343 19.3982C117.91 19.3743 117.476 19.4431 117.071 19.6001C116.665 19.757 116.298 19.9985 115.994 20.3084C115.689 20.6183 115.454 20.9895 115.305 21.3974C115.155 21.8052 115.094 22.2402 115.125 22.6735C115.096 23.1064 115.158 23.5406 115.309 23.9475C115.459 24.3544 115.694 24.7249 115.998 25.0343C116.302 25.3438 116.669 25.5853 117.073 25.743C117.477 25.9006 117.91 25.9708 118.343 25.9489C119.023 25.9831 119.694 25.7835 120.244 25.3832C120.794 24.9828 121.191 24.406 121.367 23.7489M118.321 20.9642C118.473 20.9504 118.626 20.9685 118.771 21.0173C118.916 21.0661 119.049 21.1445 119.162 21.2477C119.275 21.3508 119.365 21.4763 119.427 21.6162C119.489 21.7561 119.521 21.9073 119.521 22.0602H117.079C117.107 21.7532 117.251 21.4687 117.483 21.2649C117.714 21.0611 118.015 20.9535 118.323 20.9642M108.302 22.6762C108.27 23.1077 108.33 23.5411 108.478 23.9476C108.626 24.3542 108.859 24.7246 109.161 25.0343C109.463 25.344 109.828 25.586 110.231 25.7441C110.633 25.9022 111.065 25.9729 111.497 25.9515C112.21 25.9888 112.913 25.7667 113.475 25.3262C114.037 24.8858 114.421 24.2569 114.555 23.5555H112.479C112.419 23.7754 112.286 23.968 112.101 24.101C111.916 24.2339 111.691 24.2991 111.463 24.2855C110.767 24.2855 110.288 23.7382 110.288 22.6769C110.288 21.6155 110.767 21.0675 111.463 21.0675C111.691 21.0571 111.915 21.1239 112.099 21.2571C112.283 21.3902 112.417 21.5819 112.479 21.8009H114.555C114.429 21.0956 114.047 20.4615 113.483 20.0196C112.919 19.5777 112.212 19.3589 111.497 19.4049C111.065 19.3844 110.634 19.4558 110.232 19.6143C109.829 19.7727 109.465 20.0147 109.163 20.3242C108.861 20.6337 108.629 21.0037 108.48 21.4098C108.332 21.8159 108.271 22.2489 108.302 22.6802M105.427 25.8642H107.367V22.1369C107.367 20.4255 106.385 19.4209 104.913 19.4209C104.542 19.4087 104.174 19.4853 103.838 19.6441C103.503 19.803 103.21 20.0395 102.985 20.3342V19.4895H101.031V25.8575H102.984V22.3995C102.967 22.229 102.986 22.0568 103.04 21.894C103.093 21.7312 103.181 21.5815 103.296 21.4544C103.411 21.3274 103.551 21.2259 103.708 21.1564C103.864 21.0869 104.034 21.051 104.205 21.051C104.377 21.051 104.546 21.0869 104.703 21.1564C104.86 21.2259 105 21.3274 105.115 21.4544C105.23 21.5815 105.317 21.7312 105.371 21.894C105.425 22.0568 105.444 22.229 105.427 22.3995V25.8642ZM97.7173 22.6735C97.7387 22.8702 97.7188 23.0692 97.6588 23.2577C97.5989 23.4462 97.5002 23.6202 97.3692 23.7684C97.2382 23.9166 97.0777 24.0358 96.8979 24.1185C96.7182 24.2011 96.5231 24.2453 96.3253 24.2482C96.1273 24.2428 95.9325 24.1966 95.7532 24.1124C95.5738 24.0283 95.4138 23.908 95.2831 23.7591C95.1524 23.6102 95.0539 23.4359 94.9937 23.2471C94.9335 23.0584 94.913 22.8593 94.9333 22.6622C94.9136 22.467 94.9352 22.2698 94.9966 22.0835C95.058 21.8972 95.1578 21.7258 95.2897 21.5806C95.4216 21.4353 95.5825 21.3194 95.7621 21.2404C95.9416 21.1613 96.1358 21.1209 96.332 21.1217C96.5281 21.1225 96.722 21.1645 96.9009 21.245C97.0798 21.3255 97.2397 21.4427 97.3704 21.5891C97.5011 21.7354 97.5996 21.9075 97.6595 22.0944C97.7193 22.2812 97.7393 22.4785 97.718 22.6735M92.948 22.6622C92.948 24.6709 94.192 25.9489 95.7433 25.9489C96.13 25.9669 96.5148 25.885 96.8606 25.711C97.2063 25.537 97.5014 25.2768 97.7173 24.9555V25.8575H99.6687V19.4895H97.7173V20.3909C97.5049 20.0689 97.2121 19.8079 96.8678 19.6338C96.5236 19.4597 96.1399 19.3785 95.7547 19.3982C94.1913 19.3982 92.9473 20.6535 92.9473 22.6649M90.4747 22.9042C90.4747 21.8089 91.008 21.4895 91.9353 21.4895H92.4687V19.4229C92.0669 19.4265 91.6726 19.5321 91.3228 19.7298C90.973 19.9274 90.6791 20.2106 90.4687 20.5529V19.4895H88.5173V25.8575H90.4687L90.4747 22.9042ZM87.1647 19.4922H85.214V22.9502C85.2299 23.1209 85.2101 23.293 85.1557 23.4556C85.1013 23.6182 85.0135 23.7676 84.8981 23.8944C84.7826 24.0211 84.642 24.1224 84.4852 24.1916C84.3283 24.2609 84.1588 24.2967 83.9873 24.2967C83.8159 24.2967 83.6463 24.2609 83.4895 24.1916C83.3327 24.1224 83.192 24.0211 83.0766 23.8944C82.9611 23.7676 82.8734 23.6182 82.819 23.4556C82.7646 23.293 82.7447 23.1209 82.7607 22.9502V19.4895H80.82V23.2095C80.82 24.9102 81.8133 25.9255 83.2867 25.9255C83.6595 25.9364 84.0294 25.8572 84.3652 25.6948C84.7009 25.5323 84.9925 25.2913 85.2153 24.9922V25.8589H87.166L87.1647 19.4922ZM79.8073 24.0115C79.7733 21.6375 76.3267 22.3569 76.3267 21.3409C76.3267 21.0329 76.578 20.8502 77.0347 20.8502C77.2535 20.8233 77.4741 20.8836 77.6487 21.0181C77.8234 21.1526 77.9381 21.3504 77.968 21.5689H79.768C79.6427 20.3135 78.7293 19.4009 77.0867 19.4009C75.42 19.4009 74.496 20.2909 74.496 21.3749C74.496 23.7149 77.9627 22.9749 77.9627 23.9995C77.9627 24.2849 77.7 24.5129 77.198 24.5129C76.9707 24.5382 76.7423 24.4754 76.5597 24.3375C76.3772 24.1997 76.2545 23.9971 76.2167 23.7715H74.288C74.3793 25.0035 75.5207 25.9509 77.2213 25.9509C78.8213 25.9509 79.8 25.1175 79.8 24.0109M71.444 25.8575H73.384V22.1369C73.384 20.4255 72.4027 19.4209 70.9307 19.4209C70.5597 19.4087 70.1912 19.4853 69.8558 19.6441C69.5204 19.803 69.2277 20.0395 69.002 20.3342V19.4895H67.0507V25.8575H69.002V22.3995C68.9856 22.2293 69.0049 22.0575 69.0588 21.8952C69.1127 21.7329 69.2 21.5837 69.3149 21.4571C69.4299 21.3305 69.5701 21.2293 69.7265 21.1601C69.8828 21.0908 70.052 21.0551 70.223 21.0551C70.394 21.0551 70.5631 21.0908 70.7195 21.1601C70.8759 21.2293 71.0161 21.3305 71.1311 21.4571C71.246 21.5837 71.3333 21.7329 71.3872 21.8952C71.4411 22.0575 71.4604 22.2293 71.444 22.3995V25.8575ZM63.6847 25.8575H65.636V17.8462H63.6847V25.8575Z" fill="#0064DC"/>
<path d="M93.3247 14.0648H95.276V10.6068C95.2591 10.4363 95.2781 10.264 95.3317 10.1013C95.3854 9.93848 95.4726 9.78875 95.5876 9.66171C95.7027 9.53467 95.8431 9.43314 95.9997 9.36365C96.1564 9.29417 96.3259 9.25827 96.4973 9.25827C96.6687 9.25827 96.8382 9.29417 96.9949 9.36365C97.1516 9.43314 97.292 9.53467 97.407 9.66171C97.5221 9.78875 97.6093 9.93848 97.6629 10.1013C97.7166 10.264 97.7356 10.4363 97.7187 10.6068V14.0641H99.6587V10.3475C99.6587 8.63548 98.6887 7.63148 97.2393 7.63148C96.862 7.6165 96.4865 7.69272 96.1449 7.85368C95.8032 8.01465 95.5054 8.25561 95.2767 8.55614V5.62281H93.3253L93.3247 14.0648ZM92.2047 12.2141C92.1707 9.84081 88.724 10.5601 88.724 9.54748C88.724 9.23948 88.9747 9.05614 89.4313 9.05614C89.6501 9.0294 89.8706 9.08978 90.0452 9.22425C90.2199 9.35871 90.3346 9.55647 90.3647 9.77481H92.1647C92.0387 8.51948 91.126 7.60614 89.4827 7.60614C87.816 7.60614 86.8927 8.49614 86.8927 9.58081C86.8927 11.9201 90.3593 11.1808 90.3593 12.2055C90.3593 12.4908 90.0967 12.7188 89.5947 12.7188C89.3672 12.7443 89.1386 12.6815 88.9561 12.5435C88.7735 12.4054 88.6508 12.2026 88.6133 11.9768H86.6847C86.776 13.2095 87.9173 14.1568 89.618 14.1568C91.218 14.1568 92.1973 13.3235 92.1973 12.2161M84.7527 7.03548C84.9573 7.01544 85.1517 6.93636 85.3122 6.80786C85.4727 6.67935 85.5924 6.50697 85.6567 6.31167C85.7211 6.11638 85.7272 5.9066 85.6745 5.70787C85.6218 5.50913 85.5124 5.33 85.3598 5.19228C85.2071 5.05456 85.0177 4.96418 84.8146 4.93214C84.6115 4.90011 84.4034 4.9278 84.2158 5.01184C84.0281 5.09588 83.8689 5.23265 83.7576 5.40551C83.6463 5.57837 83.5876 5.77987 83.5887 5.98548C83.5915 6.13236 83.6245 6.2771 83.6855 6.41075C83.7465 6.5444 83.8342 6.66412 83.9433 6.76252C84.0524 6.86092 84.1805 6.93591 84.3197 6.98286C84.4589 7.02981 84.6063 7.04772 84.7527 7.03548ZM83.7713 14.0648H85.7227V7.69681H83.7713V14.0648ZM79.458 11.8515C79.458 13.5055 80.3827 14.0648 81.706 14.0648H82.6987V12.4101H82.0027C81.5687 12.4101 81.4093 12.2501 81.4093 11.8768V9.31748H82.6873V7.69748H81.4093V6.14748H79.458V7.69948H78.682V9.31948H79.458V11.8515ZM76.866 7.03548C77.0706 7.01544 77.265 6.93636 77.4255 6.80786C77.586 6.67935 77.7057 6.50697 77.7701 6.31167C77.8344 6.11638 77.8406 5.9066 77.7878 5.70787C77.7351 5.50913 77.6258 5.33 77.4731 5.19228C77.3204 5.05456 77.131 4.96418 76.9279 4.93214C76.7248 4.90011 76.5168 4.9278 76.3291 5.01184C76.1415 5.09588 75.9823 5.23265 75.8709 5.40551C75.7596 5.57837 75.7009 5.77987 75.702 5.98548C75.7049 6.13236 75.7378 6.2771 75.7988 6.41075C75.8598 6.5444 75.9475 6.66412 76.0566 6.76252C76.1657 6.86092 76.2938 6.93591 76.433 6.98286C76.5722 7.02981 76.7196 7.04772 76.866 7.03548ZM75.8847 14.0648H77.836V7.69681H75.8847V14.0648ZM73.1653 11.1095C73.1653 10.0135 73.6987 9.69481 74.626 9.69481H75.1593V7.62814C74.7576 7.63187 74.3633 7.7375 74.0136 7.93513C73.6638 8.13277 73.3698 8.41594 73.1593 8.75814V7.69748H71.208V14.0648H73.1593L73.1653 11.1095ZM70.068 11.8855C70.0746 11.4353 69.9247 10.9969 69.6438 10.645C69.3629 10.2932 68.9685 10.05 68.528 9.95681C68.9283 9.85229 69.281 9.61442 69.5279 9.28245C69.7748 8.95048 69.9011 8.54425 69.886 8.13081C69.886 6.86414 68.916 6.05414 67.286 6.05414H63.68V14.0648H67.4133C69.102 14.0648 70.072 13.2088 70.072 11.8855M67.904 8.46214C67.904 9.00948 67.55 9.29481 66.9107 9.29481H65.6327V7.61414H66.9173C67.5567 7.61414 67.9107 7.91081 67.9107 8.45881M68.1047 11.6195C68.1047 12.1901 67.728 12.4861 67.0773 12.4861H65.6393V10.7215H67.0507C67.7007 10.7215 68.1 11.0548 68.1 11.6228" fill="#0064DC"/>
</g>
</g>
<defs>
<clipPath id="clip0_6894_1579">
<rect width="130" height="63.2307" fill="white"/>
</clipPath>
</defs>
</svg>
