<svg width="129" height="60" viewBox="0 0 129 60" fill="none" xmlns="http://www.w3.org/2000/svg">
<g clip-path="url(#clip0_6024_1178)">
<path d="M43.2598 17.9556H49.652V19.7333H45.4205V22.2667H49.0668V24.0444H45.4205V28.0889H43.2598V17.9556ZM51.4526 18.9333C51.2275 18.7111 51.0925 18.4444 51.0925 18.1333C51.0925 17.8222 51.1825 17.5111 51.4526 17.3333C51.7227 17.1556 51.9478 17.0222 52.3079 17.0222C52.668 17.0222 52.9381 17.1111 53.1632 17.3333C53.3882 17.5556 53.5233 17.8222 53.5233 18.1333C53.5233 18.4444 53.4333 18.7555 53.1632 18.9333C52.8931 19.1111 52.623 19.2444 52.3079 19.2444C51.9928 19.2444 51.6777 19.1111 51.4526 18.9333ZM51.2725 20.4444H53.4333V28.1333H51.2725V20.4444ZM55.549 20.4444H57.3046L57.4396 21.4222H57.4846C57.8448 21.0667 58.2499 20.7556 58.655 20.5778C59.0602 20.4 59.5103 20.2667 60.0055 20.2667C60.8158 20.2667 61.446 20.5333 61.8061 21.0667C62.2113 21.6 62.3913 22.3555 62.3913 23.3778V28.1778H60.2306V23.6444C60.2306 23.0667 60.1406 22.6667 60.0055 22.4444C59.8254 22.2222 59.5554 22.0889 59.1952 22.0889C58.9279 22.0719 58.6616 22.1338 58.43 22.2667C58.2049 22.4 57.9348 22.5778 57.6197 22.8889V28.1333H55.459V20.4444H55.549ZM64.7771 27.6889C64.372 27.2444 64.1469 26.7111 64.1469 26.0444C64.1399 25.6651 64.2314 25.2903 64.4126 24.9558C64.5939 24.6213 64.8588 24.3381 65.1823 24.1333C65.9025 23.6889 67.0279 23.3778 68.5584 23.2C68.5134 22.3556 68.1083 21.9556 67.253 21.9556C66.9379 21.9556 66.5777 22 66.2626 22.1333L65.1823 22.6667L64.417 21.2889C65.4974 20.6222 66.6228 20.2667 67.7031 20.2667C68.6935 20.2667 69.4587 20.5333 69.9539 21.1111C70.4491 21.6889 70.7192 22.5333 70.7192 23.6889V28.1333H68.9636L68.7835 27.3333H68.7385C68.1231 27.9299 67.3045 28.2785 66.4427 28.3111C66.1368 28.3247 65.8313 28.2765 65.5449 28.1695C65.2586 28.0626 64.9973 27.899 64.7771 27.6889ZM67.8382 26.4889L68.5584 25.9556V24.4889C67.7031 24.6222 67.1179 24.7556 66.7128 25.0222C66.3527 25.2444 66.1726 25.5556 66.1726 25.8667C66.1726 26.1333 66.2626 26.3555 66.4427 26.4889C66.6228 26.6222 66.8478 26.7111 67.1629 26.7111C67.388 26.6667 67.6581 26.6222 67.8382 26.4889ZM72.7449 20.4444H74.5004L74.6805 21.4222H74.7255C75.0856 21.0667 75.4908 20.7556 75.8959 20.5778C76.3011 20.4 76.7512 20.2667 77.2464 20.2667C78.0567 20.2667 78.6869 20.5333 79.047 21.0667C79.4521 21.6 79.6322 22.3555 79.6322 23.3778V28.1778H77.4715V23.6444C77.4715 23.0667 77.3814 22.6667 77.2464 22.4444C77.0663 22.2222 76.8412 22.0889 76.4361 22.0889C76.1688 22.0719 75.9024 22.1338 75.6708 22.2667C75.4458 22.4 75.1757 22.5778 74.8606 22.8889V28.1333H72.6998V20.4444H72.7449ZM83.0984 27.8222C82.5213 27.5034 82.0517 27.0244 81.7479 26.4444C81.4328 25.8222 81.2528 25.1111 81.2528 24.3111C81.2235 23.5905 81.3922 22.8755 81.7408 22.2417C82.0895 21.608 82.6052 21.0791 83.2334 20.7111C83.8636 20.4 84.5389 20.2667 85.2141 20.2222C86.0694 20.2222 86.8346 20.4889 87.5099 21.0667L86.4745 22.4444C86.2945 22.2667 86.0694 22.1778 85.8893 22.0889C85.7093 22 85.5292 21.9556 85.3041 21.9556C85.0395 21.9516 84.7773 22.0054 84.5361 22.1129C84.2949 22.2205 84.0806 22.3792 83.9087 22.5778C83.5485 22.9778 83.3685 23.5555 83.3685 24.2667C83.3685 24.9778 83.5485 25.5111 83.8636 25.9556C84.2238 26.3556 84.6289 26.5778 85.2141 26.5778C85.6643 26.5778 86.1594 26.4 86.6996 26L87.5549 27.3778C87.1948 27.6889 86.7896 27.9111 86.3395 28.0889C85.8893 28.2667 85.4392 28.3111 84.989 28.3111C84.3138 28.3111 83.6836 28.1778 83.0984 27.8222ZM89.2205 18.9333C88.9954 18.7111 88.8603 18.4444 88.8603 18.1333C88.8603 17.8222 88.9504 17.5111 89.2205 17.3333C89.4906 17.1556 89.7607 17.0222 90.0758 17.0222C90.3909 17.0222 90.706 17.1111 90.931 17.3333C91.1561 17.5556 91.2912 17.8222 91.2912 18.1333C91.2912 18.4444 91.1561 18.7555 90.931 18.9333C90.6898 19.1283 90.3876 19.2348 90.0758 19.2348C89.764 19.2348 89.4618 19.1283 89.2205 18.9333ZM89.0404 20.4444H91.2011V28.1333H89.0404V20.4444ZM93.587 27.6889C93.1818 27.2444 92.9567 26.7111 92.9567 26.0444C92.9497 25.6651 93.0412 25.2903 93.2224 24.9558C93.4037 24.6213 93.6686 24.3381 93.9921 24.1333C94.7123 23.6889 95.8377 23.3778 97.3682 23.2C97.3232 22.3556 96.9181 21.9556 96.0628 21.9556C95.7477 21.9556 95.3876 22 95.0725 22.1333L93.9921 22.6667L93.2268 21.2889C94.3072 20.6222 95.4326 20.2667 96.513 20.2667C97.5033 20.2667 98.2685 20.5333 98.7637 21.1111C99.2589 21.6889 99.529 22.5333 99.529 23.6889V28.1333H97.7734L97.5933 27.3333H97.5483C96.9329 27.9299 96.1143 28.2785 95.2525 28.3111C94.5773 28.3111 93.9921 28.0889 93.587 27.6889ZM96.693 26.4889L97.4133 25.9556V24.4889C96.558 24.6222 95.9728 24.7556 95.5676 25.0222C95.2075 25.2444 95.0274 25.5556 95.0274 25.8667C95.0274 26.1333 95.1175 26.3555 95.2975 26.4889C95.4776 26.6222 95.7027 26.7111 96.0178 26.7111C96.2429 26.6667 96.4679 26.6222 96.693 26.4889ZM102.05 27.6889C101.735 27.2444 101.555 26.6667 101.555 25.8667V17.2H103.715V25.9556C103.715 26.1778 103.76 26.3111 103.85 26.4444L104.121 26.5778L104.391 26.5333L104.661 28.1333C104.346 28.2667 103.986 28.3111 103.535 28.3111C102.86 28.3111 102.365 28.0889 102.05 27.6889ZM44.9704 42.8C44.2522 42.3728 43.686 41.7361 43.3498 40.9778C42.9304 40.0884 42.7298 39.1138 42.7646 38.1333C42.7646 37.0222 42.9447 36.0889 43.3498 35.3333C43.7068 34.5809 44.283 33.9506 45.0047 33.5231C45.7263 33.0956 46.5607 32.8902 47.4012 32.9333C48.3465 32.9333 49.1118 33.1556 49.832 33.5556C50.5523 33.9556 51.0925 34.5778 51.4526 35.3778C51.8651 36.2536 52.0655 37.2122 52.0378 38.1778C52.0378 39.2444 51.8577 40.1778 51.4526 41.0222C51.1139 41.779 50.5483 42.415 49.832 42.8444C49.1009 43.2824 48.2557 43.4987 47.4012 43.4667C46.4559 43.4667 45.6456 43.2 44.9704 42.8ZM49.1118 40.6667C49.5619 40.0444 49.787 39.2 49.787 38.1333C49.787 37.0667 49.5619 36.2667 49.1118 35.6444C48.6616 35.0222 48.0764 34.7555 47.3562 34.7555C46.5909 34.7555 46.0057 35.0667 45.6006 35.6444C45.1422 36.3928 44.9226 37.26 44.9704 38.1333C44.9704 39.2 45.1955 40.0444 45.6456 40.6667C46.0958 41.2889 46.681 41.6 47.4012 41.6C48.1215 41.6 48.7067 41.2889 49.1118 40.6667ZM53.7934 35.5556H55.549L55.729 36.5778H55.7741C56.1033 36.2289 56.4824 35.9294 56.8994 35.6889C57.2795 35.4651 57.7179 35.3569 58.1599 35.3778C58.7001 35.3778 59.1502 35.5111 59.5103 35.7333C59.8705 35.9556 60.1406 36.2667 60.3206 36.7111C60.6744 36.345 61.0668 36.0172 61.491 35.7333C61.8962 35.5111 62.3013 35.3778 62.7514 35.3778C63.5617 35.3778 64.1919 35.6444 64.5971 36.1778C65.0472 36.8444 65.2273 37.6444 65.1823 38.4444V43.2444H63.0215V38.7111C63.0215 38.1333 62.9315 37.7333 62.7965 37.5111C62.6164 37.2889 62.3463 37.1556 61.9862 37.1556C61.581 37.1556 61.0859 37.4222 60.5457 37.9556V43.2H58.385V38.6667C58.385 38.0889 58.2949 37.6889 58.1599 37.4667C57.9798 37.2444 57.7097 37.1111 57.3496 37.1111C56.9445 37.1111 56.4493 37.3778 55.9091 37.9111V43.1556H53.7484V35.5556H53.7934ZM70.179 43.1556C69.8188 42.9778 69.5037 42.7111 69.1886 42.4H69.1436L68.9636 43.2444H67.298V32.3111H69.4587V35.0222L69.4137 36.2222C69.7288 35.9556 70.0889 35.7333 70.4491 35.5556C70.8092 35.3778 71.1693 35.3333 71.5294 35.3333C71.9638 35.3192 72.3953 35.4088 72.7871 35.5945C73.179 35.7802 73.5196 36.0565 73.7802 36.4C74.3204 37.1111 74.5905 38.0444 74.5905 39.2444C74.5905 40.0889 74.4554 40.8444 74.1403 41.4667C73.86 42.0446 73.4432 42.5476 72.9249 42.9333C72.4748 43.2444 71.8896 43.3778 71.3044 43.4222C70.8542 43.4222 70.4941 43.3333 70.179 43.1556ZM71.8896 41.0667C72.2047 40.6667 72.3397 40.0444 72.3397 39.2889C72.3397 37.8222 71.8445 37.1111 70.8542 37.1111C70.359 37.1111 69.8639 37.3778 69.3687 37.8667V41.1556C69.7738 41.5111 70.224 41.6889 70.7192 41.6889C71.2143 41.6889 71.5744 41.4667 71.8896 41.0667ZM76.7512 42.6222C76.3461 42.0889 76.166 41.3333 76.166 40.3111V35.5111H78.3268V40.0444C78.3268 40.6222 78.4168 41.0222 78.5968 41.2444C78.7769 41.4667 79.047 41.6 79.4071 41.6C79.7222 41.6 79.9923 41.5111 80.1724 41.3778C80.456 41.188 80.7004 40.9467 80.8926 40.6667V35.5111H83.0534V43.2H81.2978L81.1627 42.0889H81.1177C80.7576 42.4889 80.3975 42.8 79.9923 43.0222C79.5773 43.2402 79.1118 43.3474 78.6419 43.3333C77.7416 43.4222 77.1113 43.1556 76.7512 42.6222ZM85.5742 42.3556C84.944 41.4667 84.6739 40.4889 84.7189 39.4222C84.7189 38.6222 84.854 37.9111 85.1691 37.2889C85.4494 36.7232 85.8669 36.2346 86.3845 35.8667C86.8346 35.5555 87.4198 35.4222 87.96 35.3778C88.3652 35.3778 88.7253 35.4667 88.9954 35.6C89.3105 35.7333 89.5806 35.9556 89.8957 36.2222L89.8057 35.0222V32.3556H91.9664V43.2889H90.2108L90.0758 42.4889H90.0307C89.7156 42.8 89.4005 43.0222 89.0404 43.2C88.6803 43.3778 88.2751 43.4667 87.915 43.4667C86.8797 43.4222 86.1144 43.0667 85.5742 42.3556ZM89.1755 41.5111C89.4005 41.3778 89.6256 41.2 89.8057 40.9333V37.6444C89.4455 37.2889 88.9054 37.1111 88.4102 37.1111C87.96 37.1111 87.5999 37.2889 87.3298 37.6889C87.0147 38.0889 86.8797 38.6222 86.8797 39.3778C86.8797 40.1333 87.0147 40.7111 87.2848 41.1111C87.5549 41.5111 87.915 41.6889 88.4102 41.6889C88.6803 41.6889 88.9504 41.6444 89.1755 41.5111ZM94.8024 43.1556C94.2622 42.9778 93.812 42.7111 93.4069 42.3556L94.3972 41.0222C94.7574 41.2889 95.1175 41.5111 95.4326 41.6444C95.7595 41.7853 96.1113 41.8608 96.4679 41.8667C96.8281 41.8667 97.0982 41.8222 97.2782 41.6889C97.4583 41.5556 97.5483 41.3778 97.5483 41.1556C97.5483 40.9778 97.4583 40.8444 97.3232 40.7111L96.738 40.3556L95.9278 40.0444C95.2975 39.8222 94.8024 39.5111 94.3972 39.1556C94.2018 38.9835 94.0478 38.7705 93.9466 38.5321C93.8453 38.2937 93.7993 38.036 93.812 37.7778C93.812 37.0667 94.0821 36.4889 94.6223 36.0444C95.1625 35.6 95.8827 35.3778 96.738 35.3778C97.6833 35.3778 98.5837 35.6889 99.4389 36.3556L98.4936 37.6444C98.0435 37.2444 97.4583 37.0222 96.8281 36.9778C96.513 36.9778 96.2429 37.0222 96.1078 37.1556C95.9278 37.2889 95.8827 37.4667 95.8827 37.6444C95.8827 37.8222 95.9728 38 96.1978 38.1333L96.9181 38.4889L97.4583 38.6667C98.1335 38.8889 98.6287 39.2 99.0338 39.5111C99.4389 39.8667 99.619 40.3111 99.619 40.9778C99.6251 41.4354 99.4907 41.8841 99.2336 42.2649C98.9765 42.6456 98.6087 42.9407 98.1785 43.1111C97.7284 43.3333 97.1432 43.4222 96.4679 43.4222C95.9014 43.4281 95.338 43.3379 94.8024 43.1556ZM101.014 35.5556H102.77L102.905 36.5778H102.95C103.279 36.2289 103.659 35.9294 104.076 35.6889C104.456 35.4651 104.894 35.3569 105.336 35.3778C105.876 35.3778 106.326 35.5111 106.686 35.7333C107.047 35.9556 107.317 36.2667 107.497 36.7111C107.85 36.345 108.243 36.0172 108.667 35.7333C109.072 35.5111 109.477 35.3778 109.928 35.3778C110.738 35.3778 111.368 35.6444 111.773 36.1778C112.209 36.8519 112.414 37.6465 112.358 38.4444V43.2444H110.198V38.7111C110.198 38.1333 110.108 37.7333 109.973 37.5111C109.792 37.2889 109.522 37.1556 109.162 37.1556C108.757 37.1556 108.262 37.4222 107.722 37.9556V43.2H105.561V38.6667C105.561 38.0889 105.471 37.6889 105.336 37.4667C105.156 37.2444 104.886 37.1111 104.526 37.1111C104.121 37.1111 103.625 37.3778 103.085 37.9111V43.1556H100.924V35.5556H101.014ZM114.699 42.8C114.294 42.3556 114.069 41.8222 114.069 41.1556C114.062 40.7762 114.153 40.4015 114.335 40.0669C114.516 39.7324 114.781 39.4492 115.104 39.2444C115.825 38.8 116.95 38.4889 118.48 38.3111C118.435 37.4667 118.03 37.0667 117.175 37.0667C116.86 37.0667 116.5 37.1111 116.185 37.2444L115.059 37.7778L114.294 36.4C115.419 35.7333 116.5 35.3778 117.58 35.3778C118.57 35.3778 119.336 35.6444 119.831 36.2222C120.326 36.8 120.596 37.6444 120.596 38.8V43.2444H118.841L118.706 42.4444H118.661C118.045 43.041 117.227 43.3896 116.365 43.4222C115.689 43.4222 115.149 43.2 114.699 42.8ZM117.805 41.6L118.525 41.0667V39.6C117.67 39.7333 117.085 39.8667 116.68 40.1333C116.32 40.3556 116.14 40.6667 116.14 40.9778C116.14 41.2444 116.23 41.4667 116.41 41.6C116.59 41.7333 116.815 41.8222 117.13 41.8222C117.355 41.7778 117.625 41.7333 117.805 41.6ZM122.712 35.5556H124.467L124.648 36.5333H124.693C125.053 36.1778 125.458 35.8667 125.863 35.6889C126.268 35.5111 126.718 35.3778 127.213 35.3778C128.024 35.3778 128.654 35.6444 129.014 36.1778C129.419 36.7111 129.599 37.4667 129.599 38.4889V43.2889H127.438V38.7555C127.438 38.1778 127.348 37.7778 127.213 37.5556C127.033 37.3333 126.808 37.2 126.403 37.2C126.136 37.183 125.869 37.2449 125.638 37.3778C125.413 37.5111 125.143 37.6889 124.828 38V43.2444H122.667V35.5556H122.712ZM44.2952 58.1778C43.6199 57.9111 43.0347 57.5555 42.5396 57.0667L43.8 55.6C44.1601 55.9111 44.6103 56.1778 45.0604 56.4C45.5106 56.5778 45.9607 56.7111 46.4109 56.7111C46.906 56.7111 47.3112 56.6222 47.5813 56.4444C47.8514 56.2667 47.9864 56 47.9864 55.6444C47.9864 55.4222 47.9414 55.2444 47.8063 55.1111L47.3562 54.7555L46.4559 54.3555L45.1054 53.7778C44.5199 53.5646 44.0057 53.1954 43.6199 52.7111C43.2148 52.2667 43.0347 51.6889 43.0347 51.0222C43.0347 50.4889 43.1698 49.9556 43.4849 49.5111C43.8132 49.0445 44.2647 48.6756 44.7903 48.4444C45.3305 48.1778 45.9607 48.0444 46.6359 48.0444C47.2211 48.0444 47.8063 48.1778 48.3915 48.4C48.9767 48.6222 49.4719 48.9778 49.8771 49.3778L48.7967 50.7111C48.4366 50.4444 48.0764 50.2222 47.7613 50.0889C47.4031 49.9474 47.0217 49.8721 46.6359 49.8667C46.2714 49.8499 45.9104 49.9429 45.6006 50.1333C45.3305 50.3111 45.2405 50.5333 45.2405 50.8444C45.2405 51.0667 45.2855 51.2444 45.4205 51.3778L45.9157 51.7333L46.816 52.1333L48.1215 52.6667C48.718 52.8827 49.246 53.2507 49.652 53.7333C50.0217 54.2191 50.2122 54.8149 50.1922 55.4222C50.2089 55.9742 50.0516 56.5178 49.742 56.9778C49.4199 57.4607 48.9678 57.8455 48.4366 58.0889C47.8514 58.3555 47.1761 58.4889 46.4109 58.4889C45.6456 58.5333 44.9704 58.4 44.2952 58.1778ZM58.1149 55.1111H53.2982C53.3883 55.7333 53.6583 56.1778 54.0635 56.4444C54.4686 56.7556 54.9188 56.8889 55.459 56.8889C56.081 56.8639 56.6859 56.6802 57.2146 56.3555L57.9348 57.6444C57.5297 57.9111 57.1245 58.1333 56.6294 58.2667C56.1342 58.4 55.684 58.4889 55.1889 58.4889C54.4686 58.4889 53.7934 58.3111 53.2082 58C52.6061 57.6787 52.1188 57.1821 51.8127 56.5778C51.4526 55.9556 51.3175 55.2444 51.3175 54.4444C51.3175 53.6444 51.4976 52.9333 51.8127 52.3111C52.1416 51.7375 52.6046 51.2499 53.1632 50.8889C53.7094 50.5724 54.3305 50.4038 54.9638 50.4C56.0442 50.4 56.8544 50.7555 57.3946 51.4222C57.9816 52.1877 58.2836 53.1294 58.2499 54.0889C58.2049 54.5333 58.2049 54.8889 58.1149 55.1111ZM56.4043 53.6889C56.4247 53.274 56.2972 52.8651 56.0442 52.5333C55.9143 52.3899 55.7545 52.2759 55.5758 52.1992C55.3971 52.1224 55.2036 52.0848 55.0088 52.0889C54.6037 52.0889 54.2886 52.2222 53.9734 52.4889C53.6583 52.7556 53.4783 53.1556 53.3882 53.6889H56.4043ZM59.8705 50.6667H61.6261L61.8061 52H61.8511C62.1212 51.5111 62.4363 51.1111 62.8415 50.8444C63.1447 50.6303 63.499 50.4973 63.8697 50.4584C64.2404 50.4195 64.6151 50.4759 64.9572 50.6222L64.5971 52.4444L64.327 52.3555L63.7868 52.3111C63.4282 52.3295 63.0833 52.4533 62.7965 52.6667C62.4813 52.8889 62.2113 53.2889 61.9862 53.7778V58.3111H59.8254V50.6667H59.8705ZM65.2723 50.6667H67.433L68.5134 54.4L69.1436 56.7555H69.1886L69.8189 54.4L70.8992 50.6667H72.9699L70.404 58.3555H67.9282L65.2723 50.6667ZM74.4554 49.1556C74.2304 48.9333 74.0953 48.6667 74.0953 48.3556C74.0953 48.0444 74.1853 47.7333 74.4554 47.5555C74.7255 47.3778 74.9506 47.2444 75.3107 47.2444C75.6708 47.2444 75.9409 47.3333 76.166 47.5555C76.3911 47.7778 76.5261 48.0444 76.5261 48.3556C76.5261 48.6667 76.4361 48.9778 76.166 49.1556C75.8959 49.3333 75.6258 49.4667 75.3107 49.4667C74.9956 49.4667 74.6805 49.3333 74.4554 49.1556ZM74.2754 50.6667H76.4361V58.3555H74.2754V50.6667ZM79.9473 58.0444C79.3702 57.7257 78.9006 57.2466 78.5968 56.6667C78.2817 56.0444 78.1017 55.3333 78.1017 54.5333C78.0724 53.8127 78.2411 53.0977 78.5898 52.464C78.9384 51.8302 79.4542 51.3014 80.0823 50.9333C80.7126 50.6222 81.3878 50.4889 82.063 50.4444C82.9183 50.4444 83.6836 50.7111 84.3588 51.2889L83.3235 52.6667C83.1434 52.4889 82.9183 52.4 82.7383 52.3111C82.5582 52.2222 82.3781 52.1778 82.1531 52.1778C81.8884 52.1739 81.6262 52.2276 81.385 52.3351C81.1438 52.4427 80.9296 52.6014 80.7576 52.8C80.3975 53.2 80.2174 53.7778 80.2174 54.4889C80.2174 55.2 80.3975 55.7333 80.7126 56.1778C81.0727 56.5778 81.4778 56.8 82.063 56.8C82.5132 56.8 83.0084 56.6222 83.5485 56.2222L84.4038 57.6C84.0437 57.9111 83.6386 58.1333 83.1884 58.3111C82.7383 58.4889 82.2881 58.5333 81.838 58.5333C81.1627 58.5333 80.5325 58.4 79.9473 58.0444ZM91.8314 55.1111H87.0147C87.1047 55.7333 87.3748 56.1778 87.78 56.4444C88.1851 56.7556 88.6353 56.8889 89.1755 56.8889C89.7156 56.8889 90.3008 56.7111 90.886 56.3555L91.6063 57.6444C91.2011 57.9111 90.796 58.1333 90.3008 58.2667C89.8057 58.4 89.3555 58.4889 88.8603 58.4889C88.1401 58.4889 87.4649 58.3111 86.8797 58C86.2776 57.6787 85.7903 57.1821 85.4842 56.5778C85.1241 55.9556 84.989 55.2444 84.989 54.4444C84.989 53.6444 85.1691 52.9333 85.4842 52.3111C85.813 51.7375 86.2761 51.2499 86.8346 50.8889C87.3809 50.5724 88.002 50.4038 88.6353 50.4C89.7156 50.4 90.5259 50.7555 91.0661 51.4222C91.6531 52.1877 91.9551 53.1294 91.9214 54.0889L91.8314 55.1111ZM90.0758 53.6889C90.0961 53.274 89.9687 52.8651 89.7156 52.5333C89.5858 52.3899 89.426 52.2759 89.2473 52.1992C89.0685 52.1224 88.8751 52.0848 88.6803 52.0889C88.2751 52.0889 87.96 52.2222 87.6449 52.4889C87.3298 52.7556 87.1498 53.1556 87.0597 53.6889H90.0758Z" fill="black"/>
<path d="M10.0384 22.3556C11.1638 7.55556 18.6364 0.755556 30.6104 0.133333V0H0V22.3556H10.0384Z" fill="#2B2A6D"/>
<path d="M9.90338 25.6H0V46.0444C8.28282 41.7333 9.49824 37.8666 9.90338 25.6Z" fill="#5191CD"/>
<path d="M17.1958 25.6C16.7906 39.7778 12.1541 44.4 2.16064 48.9778L2.20566 49.0667C3.94227 48.6323 5.72602 48.4084 7.51747 48.4C19.0864 48.4 20.1218 60.1778 32.3209 60.1778C33.2662 60.1778 34.0315 60.0444 34.7067 59.8222V25.5555H17.1958V25.6Z" fill="#2B2A6D"/>
<path d="M32.1861 2.44446C23.4981 2.44446 17.6461 8.57779 17.241 22.4H34.7069V2.57779C34.1217 2.4889 33.0864 2.44446 32.1861 2.44446Z" fill="#5191CD"/>
</g>
<defs>
<clipPath id="clip0_6024_1178">
<rect width="128.521" height="60" fill="white"/>
</clipPath>
</defs>
</svg>
