<svg width="40" height="40" viewBox="0 0 40 40" fill="none" xmlns="http://www.w3.org/2000/svg">
<circle cx="20" cy="20" r="20" fill="#F0F4F9"/>
<path d="M28.1354 29.2233C25.7521 29.2233 23.5102 28.7713 21.4098 27.8674C19.3088 26.9635 17.4755 25.7265 15.9098 24.1564C14.3436 22.5857 13.1061 20.7472 12.1973 18.6409C11.288 16.534 10.8333 14.2779 10.8333 11.8725C10.8181 11.5968 10.9097 11.3553 11.1083 11.1482C11.3069 10.9416 11.5514 10.8384 11.8417 10.8384H15.4167C15.6917 10.8384 15.9285 10.9416 16.1271 11.1482C16.3257 11.3553 16.425 11.6044 16.425 11.8955C16.425 12.5696 16.4708 13.2054 16.5625 13.8029C16.6542 14.4005 16.7993 14.9673 16.9979 15.5035C17.0743 15.6721 17.0896 15.8443 17.0437 16.0202C16.9979 16.1967 16.9062 16.3615 16.7687 16.5147L14.4771 18.8128C15.134 20.1611 16.066 21.4403 17.2729 22.6507C18.4799 23.861 19.7785 24.8262 21.1687 25.5463L23.4604 23.2482C23.5979 23.1103 23.7583 23.0184 23.9417 22.9724C24.125 22.9265 24.3083 22.9418 24.4917 23.0184C25.0569 23.2022 25.6412 23.3438 26.2443 23.4431C26.8481 23.543 27.4708 23.5929 28.1125 23.5929C28.4028 23.5929 28.6512 23.7002 28.8577 23.9146C29.0637 24.1291 29.1667 24.3896 29.1667 24.696V28.2121C29.1667 28.4879 29.0674 28.7254 28.8687 28.9245C28.6701 29.1237 28.4257 29.2233 28.1354 29.2233ZM27.3333 20.0308C27.3333 17.9779 26.6229 16.2389 25.2021 14.8141C23.7812 13.3893 22.0472 12.6769 20 12.6769V10.8384C21.2681 10.8384 22.4597 11.0795 23.575 11.5618C24.6903 12.0447 25.6604 12.6999 26.4854 13.5272C27.3104 14.3545 27.9634 15.3274 28.4443 16.4458C28.9259 17.5642 29.1667 18.7592 29.1667 20.0308H27.3333ZM23.6667 20.0308C23.6667 19.0197 23.3076 18.154 22.5896 17.434C21.8715 16.7139 21.0083 16.3539 20 16.3539V14.5154C21.5278 14.5154 22.8264 15.0516 23.8958 16.124C24.9653 17.1965 25.5 18.4988 25.5 20.0308H23.6667Z" fill="#003478"/>
</svg>
