<svg width="45" height="37" viewBox="0 0 45 37" fill="none" xmlns="http://www.w3.org/2000/svg">
<path d="M22.7391 6.00588L15.9328 11.5324C14.8008 12.4488 14.5828 14.0982 15.4406 15.2754C16.3477 16.5302 18.1125 16.7769 19.3289 15.8253L26.3109 10.3834C26.8031 10.0027 27.5063 10.0873 27.893 10.5807C28.2797 11.0742 28.1883 11.7791 27.6961 12.1668L26.2266 13.3087L36 22.3316V9.0229H35.9508L35.6766 8.84667L30.5719 5.56884C29.4961 4.87803 28.2375 4.51147 26.9578 4.51147C25.425 4.51147 23.9344 5.04016 22.7391 6.00588ZM24.3422 14.775L20.707 17.6087C18.4922 19.3428 15.2789 18.8916 13.6195 16.6077C12.0586 14.4577 12.4523 11.4548 14.5125 9.7842L20.3625 5.04016C19.5469 4.69475 18.668 4.51852 17.775 4.51852C16.4531 4.51147 15.1664 4.90622 14.0625 5.63933L9 9.0229V24.8129H10.9828L17.4094 30.6918C18.7875 31.9536 20.918 31.8549 22.1766 30.4733C22.5633 30.0433 22.8234 29.5428 22.957 29.0212L24.1523 30.1208C25.5234 31.3826 27.6609 31.291 28.9195 29.9164C29.2359 29.571 29.468 29.1692 29.6156 28.7533C30.9797 29.6697 32.8359 29.4794 33.982 28.2246C35.2406 26.8501 35.1492 24.7071 33.7781 23.4453L24.3422 14.775ZM1.125 9.0229C0.50625 9.0229 0 9.53043 0 10.1508V24.8129C0 26.0606 1.00547 27.0686 2.25 27.0686H4.5C5.74453 27.0686 6.75 26.0606 6.75 24.8129V9.0229H1.125ZM3.375 22.5572C3.67337 22.5572 3.95952 22.676 4.1705 22.8875C4.38147 23.099 4.5 23.3859 4.5 23.685C4.5 23.9841 4.38147 24.271 4.1705 24.4825C3.95952 24.694 3.67337 24.8129 3.375 24.8129C3.07663 24.8129 2.79048 24.694 2.5795 24.4825C2.36853 24.271 2.25 23.9841 2.25 23.685C2.25 23.3859 2.36853 23.099 2.5795 22.8875C2.79048 22.676 3.07663 22.5572 3.375 22.5572ZM38.25 9.0229V24.8129C38.25 26.0606 39.2555 27.0686 40.5 27.0686H42.75C43.9945 27.0686 45 26.0606 45 24.8129V10.1508C45 9.53043 44.4938 9.0229 43.875 9.0229H38.25ZM40.5 23.685C40.5 23.3859 40.6185 23.099 40.8295 22.8875C41.0405 22.676 41.3266 22.5572 41.625 22.5572C41.9234 22.5572 42.2095 22.676 42.4205 22.8875C42.6315 23.099 42.75 23.3859 42.75 23.685C42.75 23.9841 42.6315 24.271 42.4205 24.4825C42.2095 24.694 41.9234 24.8129 41.625 24.8129C41.3266 24.8129 41.0405 24.694 40.8295 24.4825C40.6185 24.271 40.5 23.9841 40.5 23.685Z" fill="#003478"/>
</svg>
