<svg width="41" height="36" viewBox="0 0 41 36" fill="none" xmlns="http://www.w3.org/2000/svg">
<path d="M6.83333 31.5V33.75C6.83333 34.3875 6.61543 34.9215 6.17961 35.352C5.74228 35.784 5.20093 36 4.55556 36H2.27778C1.63241 36 1.09182 35.784 0.656 35.352C0.218667 34.9215 0 34.3875 0 33.75V15.75L4.78333 2.25C5.01111 1.575 5.41959 1.03125 6.00878 0.61875C6.59644 0.20625 7.25093 0 7.97222 0H33.0278C33.7491 0 34.4043 0.20625 34.9935 0.61875C35.5812 1.03125 35.9889 1.575 36.2167 2.25L41 15.75V33.75C41 34.3875 40.7813 34.9215 40.344 35.352C39.9082 35.784 39.3676 36 38.7222 36H36.4444C35.7991 36 35.2585 35.784 34.8227 35.352C34.3853 34.9215 34.1667 34.3875 34.1667 33.75V31.5H6.83333ZM6.37778 11.25H34.6222L32.2306 4.5H8.76944L6.37778 11.25ZM10.25 24.75C11.1991 24.75 12.0054 24.4215 12.669 23.7645C13.3341 23.109 13.6667 22.3125 13.6667 21.375C13.6667 20.4375 13.3341 19.641 12.669 18.9855C12.0054 18.3285 11.1991 18 10.25 18C9.30093 18 8.49459 18.3285 7.831 18.9855C7.16589 19.641 6.83333 20.4375 6.83333 21.375C6.83333 22.3125 7.16589 23.109 7.831 23.7645C8.49459 24.4215 9.30093 24.75 10.25 24.75ZM30.75 24.75C31.6991 24.75 32.5054 24.4215 33.169 23.7645C33.8341 23.109 34.1667 22.3125 34.1667 21.375C34.1667 20.4375 33.8341 19.641 33.169 18.9855C32.5054 18.3285 31.6991 18 30.75 18C29.8009 18 28.9946 18.3285 28.331 18.9855C27.6659 19.641 27.3333 20.4375 27.3333 21.375C27.3333 22.3125 27.6659 23.109 28.331 23.7645C28.9946 24.4215 29.8009 24.75 30.75 24.75Z" fill="#003478"/>
</svg>
