<svg width="52" height="52" viewBox="0 0 52 52" fill="none" xmlns="http://www.w3.org/2000/svg">
<rect width="52" height="52" rx="26" fill="white"/>
<path d="M19.2084 29.875C20.4237 29.875 21.4566 29.4497 22.3073 28.599C23.158 27.7483 23.5834 26.7153 23.5834 25.5C23.5834 24.2847 23.158 23.2517 22.3073 22.401C21.4566 21.5503 20.4237 21.125 19.2084 21.125C17.9931 21.125 16.9601 21.5503 16.1094 22.401C15.2587 23.2517 14.8334 24.2847 14.8334 25.5C14.8334 26.7153 15.2587 27.7483 16.1094 28.599C16.9601 29.4497 17.9931 29.875 19.2084 29.875ZM19.2084 34.25C16.7778 34.25 14.7118 33.3993 13.0105 31.6979C11.3091 29.9965 10.4584 27.9306 10.4584 25.5C10.4584 23.0694 11.3091 21.0035 13.0105 19.3021C14.7118 17.6007 16.7778 16.75 19.2084 16.75C21.1771 16.75 22.897 17.309 24.368 18.4271C25.838 19.5451 26.8646 20.9306 27.448 22.5833H39.0417C39.2362 22.5833 39.4248 22.6198 39.6075 22.6927C39.7893 22.7656 39.941 22.8628 40.0625 22.9844L41.4844 24.4062C41.6302 24.5521 41.7396 24.7159 41.8125 24.8977C41.8855 25.0805 41.9219 25.2691 41.9219 25.4635C41.9219 25.658 41.8918 25.8403 41.8315 26.0104C41.7703 26.1806 41.6667 26.3385 41.5209 26.4844L37.7292 30.276C37.5834 30.4219 37.4254 30.5312 37.2552 30.6042C37.0851 30.6771 36.9028 30.7135 36.7084 30.7135C36.5139 30.7135 36.3316 30.6829 36.1615 30.6217C35.9914 30.5614 35.8334 30.4583 35.6875 30.3125L33.7917 28.4167L31.8959 30.3125C31.75 30.4583 31.5921 30.5614 31.4219 30.6217C31.2518 30.6829 31.0695 30.7135 30.875 30.7135C30.6806 30.7135 30.4983 30.6829 30.3282 30.6217C30.158 30.5614 30 30.4583 29.8542 30.3125L27.9584 28.4167H27.448C26.8403 30.1667 25.783 31.5764 24.2761 32.6458C22.7691 33.7153 21.0799 34.25 19.2084 34.25Z" fill="#003478"/>
</svg>
