<svg width="52" height="52" viewBox="0 0 52 52" fill="none" xmlns="http://www.w3.org/2000/svg">
<rect width="52" height="52" rx="26" fill="white"/>
<path d="M16.2916 34.25C15.0763 34.25 14.0434 33.8246 13.1927 32.974C12.342 32.1233 11.9166 31.0903 11.9166 29.875C11.9166 28.6597 12.342 27.6267 13.1927 26.776C14.0434 25.9253 15.0763 25.5 16.2916 25.5C17.2395 25.5 18.0844 25.7732 18.8262 26.3196C19.567 26.8669 20.0833 27.566 20.375 28.4167H28.1041C28.3715 26.7639 29.0579 25.3177 30.1633 24.0781C31.2697 22.8385 32.625 21.9757 34.2291 21.4896L32.1875 12.375H27.9583C27.5451 12.375 27.199 12.235 26.92 11.955C26.64 11.676 26.5 11.3299 26.5 10.9167C26.5 10.5035 26.64 10.1569 26.92 9.87687C27.199 9.59784 27.5451 9.45833 27.9583 9.45833H32.1875C32.8437 9.45833 33.445 9.67124 33.9914 10.0971C34.5388 10.5219 34.8854 11.0625 35.0312 11.7187L37.802 24.0417H36.7083C35.1041 24.0417 33.7309 24.6128 32.5885 25.7552C31.4461 26.8976 30.875 28.2708 30.875 29.875V31.3333H20.375C20.0833 32.184 19.567 32.883 18.8262 33.4304C18.0844 33.9768 17.2395 34.25 16.2916 34.25ZM36.7083 34.25C35.493 34.25 34.46 33.8246 33.6093 32.974C32.7586 32.1233 32.3333 31.0903 32.3333 29.875C32.3333 28.6597 32.7586 27.6267 33.6093 26.776C34.46 25.9253 35.493 25.5 36.7083 25.5C37.9236 25.5 38.9566 25.9253 39.8072 26.776C40.6579 27.6267 41.0833 28.6597 41.0833 29.875C41.0833 31.0903 40.6579 32.1233 39.8072 32.974C38.9566 33.8246 37.9236 34.25 36.7083 34.25ZM27.9583 41.5417L19.2083 37.1667H25.0416V34.25L33.7916 38.625H27.9583V41.5417Z" fill="#003478"/>
</svg>
