<svg width="52" height="52" viewBox="0 0 52 52" fill="none" xmlns="http://www.w3.org/2000/svg">
<rect width="52" height="52" rx="26" fill="white"/>
<path d="M35.2499 34.9792C34.6698 34.9792 34.1134 34.7487 33.7031 34.3385C33.2929 33.9282 33.0624 33.3718 33.0624 32.7917C33.0624 32.2115 33.2929 31.6551 33.7031 31.2449C34.1134 30.8346 34.6698 30.6042 35.2499 30.6042C35.8301 30.6042 36.3865 30.8346 36.7967 31.2449C37.2069 31.6551 37.4374 32.2115 37.4374 32.7917C37.4374 33.3718 37.2069 33.9282 36.7967 34.3385C36.3865 34.7487 35.8301 34.9792 35.2499 34.9792ZM37.4374 21.8542L40.2957 25.5H33.7916V21.8542M17.7499 34.9792C17.1698 34.9792 16.6134 34.7487 16.2031 34.3385C15.7929 33.9282 15.5624 33.3718 15.5624 32.7917C15.5624 32.2115 15.7929 31.6551 16.2031 31.2449C16.6134 30.8346 17.1698 30.6042 17.7499 30.6042C18.3301 30.6042 18.8865 30.8346 19.2967 31.2449C19.707 31.6551 19.9374 32.2115 19.9374 32.7917C19.9374 33.3718 19.707 33.9282 19.2967 34.3385C18.8865 34.7487 18.3301 34.9792 17.7499 34.9792ZM38.1666 19.6667H33.7916V13.8333H13.3749C11.7562 13.8333 10.4583 15.1312 10.4583 16.75V32.7917H13.3749C13.3749 33.952 13.8359 35.0648 14.6563 35.8853C15.4768 36.7057 16.5896 37.1667 17.7499 37.1667C18.9102 37.1667 20.023 36.7057 20.8435 35.8853C21.664 35.0648 22.1249 33.952 22.1249 32.7917H30.8749C30.8749 33.952 31.3359 35.0648 32.1563 35.8853C32.9768 36.7057 34.0896 37.1667 35.2499 37.1667C36.4102 37.1667 37.523 36.7057 38.3435 35.8853C39.164 35.0648 39.6249 33.952 39.6249 32.7917H42.5416V25.5L38.1666 19.6667Z" fill="#003478"/>
</svg>
