<svg width="52" height="52" viewBox="0 0 52 52" fill="none" xmlns="http://www.w3.org/2000/svg">
<rect width="52" height="52" rx="26" fill="white"/>
<path d="M29.6675 12.375C30.4404 12.375 31.1827 12.6812 31.7295 13.2296L38.7704 20.2704C39.3174 20.8173 39.6248 21.559 39.625 22.3325V32.7917H42.5416V35.7083H30.6912C30.3668 36.9599 29.636 38.0684 28.6135 38.8597C27.5909 39.651 26.3346 40.0803 25.0416 40.0803C23.7487 40.0803 22.4923 39.651 21.4698 38.8597C20.4473 38.0684 19.7164 36.9599 19.392 35.7083H13.375C12.9882 35.7083 12.6173 35.5547 12.3438 35.2812C12.0703 35.0077 11.9166 34.6368 11.9166 34.25V15.2917C11.9166 14.5181 12.2239 13.7763 12.7709 13.2293C13.3179 12.6823 14.0597 12.375 14.8333 12.375H29.6675ZM25.0416 31.3333C24.6532 31.3246 24.267 31.3935 23.9055 31.536C23.5441 31.6785 23.2148 31.8919 22.937 32.1634C22.6592 32.435 22.4384 32.7593 22.2876 33.1174C22.1368 33.4754 22.0591 33.86 22.059 34.2485C22.0589 34.637 22.1364 35.0217 22.287 35.3798C22.4376 35.7379 22.6583 36.0624 22.936 36.3341C23.2137 36.6058 23.5428 36.8192 23.9042 36.962C24.2655 37.1047 24.6518 37.1738 25.0402 37.1652C25.8022 37.1484 26.5274 36.8338 27.0605 36.289C27.5936 35.7441 27.8922 35.0122 27.8924 34.25C27.8925 33.4877 27.5943 32.7557 27.0615 32.2106C26.5287 31.6654 25.8037 31.3506 25.0416 31.3333ZM29.4166 18.2083H17.75V26.9583H29.4166V18.2083ZM26.5 21.125V24.0417H20.6666V21.125H26.5Z" fill="#003478"/>
</svg>
