<svg width="20" height="20" viewBox="0 0 20 20" fill="none" xmlns="http://www.w3.org/2000/svg">
<g clip-path="url(#clip0_6712_1847)">
<path d="M18.75 13.75H13.5352L11.7676 15.5176C11.2969 15.9883 10.668 16.25 10 16.25C9.33203 16.25 8.70469 15.99 8.23242 15.5176L6.46484 13.75H1.25C0.559766 13.75 0 14.3098 0 15V18.75C0 19.4402 0.559766 20 1.25 20H18.75C19.4402 20 20 19.4402 20 18.75V15C20 14.3086 19.4414 13.75 18.75 13.75ZM16.875 17.8125C16.3594 17.8125 15.9375 17.3906 15.9375 16.875C15.9375 16.3594 16.3594 15.9375 16.875 15.9375C17.3906 15.9375 17.8125 16.3594 17.8125 16.875C17.8125 17.3906 17.3906 17.8125 16.875 17.8125ZM9.11719 14.6328C9.35938 14.8789 9.67969 15 10 15C10.3203 15 10.6398 14.8779 10.8836 14.6338L15.8836 9.63379C16.3715 9.14551 16.3715 8.35449 15.8836 7.86621C15.3953 7.37793 14.6039 7.37793 14.116 7.86621L11.25 10.7344V1.25C11.25 0.559766 10.6902 0 10 0C9.30859 0 8.75 0.559766 8.75 1.25V10.7344L5.88281 7.86719C5.39492 7.37891 4.60352 7.37891 4.11523 7.86719C3.62734 8.35547 3.62734 9.14648 4.11523 9.63477L9.11719 14.6328Z" fill="#4E4B59"/>
</g>
<defs>
<clipPath id="clip0_6712_1847">
<rect width="20" height="20" fill="white"/>
</clipPath>
</defs>
</svg>
