<svg width="35" height="35" viewBox="0 0 35 35" fill="none" xmlns="http://www.w3.org/2000/svg">
<g clip-path="url(#clip0_6804_7434)">
<path d="M24.0625 21.875C30.1055 21.875 35 16.9805 35 10.9375C35 9.8916 34.8496 8.87988 34.5762 7.91602C34.3643 7.17773 33.4551 7.01367 32.915 7.55371L27.665 12.8037C27.46 13.0088 27.1797 13.125 26.8926 13.125H22.9688C22.3672 13.125 21.875 12.6328 21.875 12.0312V8.10742C21.875 7.82031 21.9912 7.54004 22.1963 7.33496L27.4463 2.08496C27.9863 1.54492 27.8154 0.635742 27.084 0.423828C26.1201 0.150391 25.1084 0 24.0625 0C18.0195 0 13.125 4.89453 13.125 10.9375C13.125 12.2432 13.3574 13.501 13.7744 14.6631L1.36035 27.0771C0.492188 27.9453 0 29.1279 0 30.3584C0 32.9219 2.07812 35 4.6416 35C5.87207 35 7.05469 34.5078 7.92285 33.6396L20.3369 21.2256C21.499 21.6494 22.7568 21.875 24.0625 21.875ZM5.46875 27.8906C5.90387 27.8906 6.32117 28.0635 6.62885 28.3712C6.93652 28.6788 7.10938 29.0961 7.10938 29.5312C7.10938 29.9664 6.93652 30.3837 6.62885 30.6913C6.32117 30.999 5.90387 31.1719 5.46875 31.1719C5.03363 31.1719 4.61633 30.999 4.30865 30.6913C4.00098 30.3837 3.82812 29.9664 3.82812 29.5312C3.82812 29.0961 4.00098 28.6788 4.30865 28.3712C4.61633 28.0635 5.03363 27.8906 5.46875 27.8906Z" fill="#003478"/>
</g>
<defs>
<clipPath id="clip0_6804_7434">
<rect width="35" height="35" fill="white"/>
</clipPath>
</defs>
</svg>
