<svg width="19" height="18" viewBox="0 0 19 18" fill="none" xmlns="http://www.w3.org/2000/svg">
<g clip-path="url(#clip0_6024_663)">
<path d="M7.99988 15C9.59118 15 11.1173 14.3679 12.2425 13.2426C13.3677 12.1174 13.9999 10.5913 13.9999 9C13.9999 7.4087 13.3677 5.88258 12.2425 4.75736C11.1173 3.63214 9.59118 3 7.99988 3C6.40858 3 4.88246 3.63214 3.75724 4.75736C2.63202 5.88258 1.99988 7.4087 1.99988 9C1.99988 10.5913 2.63202 12.1174 3.75724 13.2426C4.88246 14.3679 6.40858 15 7.99988 15ZM7.99988 1.5C8.98479 1.5 9.96006 1.69399 10.87 2.0709C11.7799 2.44781 12.6067 3.00026 13.3032 3.6967C13.9996 4.39314 14.5521 5.21993 14.929 6.12987C15.3059 7.03982 15.4999 8.01509 15.4999 9C15.4999 10.9891 14.7097 12.8968 13.3032 14.3033C11.8967 15.7098 9.989 16.5 7.99988 16.5C3.85238 16.5 0.499878 13.125 0.499878 9C0.499878 7.01088 1.29005 5.10322 2.69658 3.6967C4.1031 2.29018 6.01075 1.5 7.99988 1.5ZM8.37488 5.25V9.1875L11.7499 11.19L11.1874 12.1125L7.24988 9.75V5.25H8.37488Z" fill="#003478"/>
</g>
<defs>
<clipPath id="clip0_6024_663">
<rect width="17.975" height="18" fill="white" transform="translate(0.544312)"/>
</clipPath>
</defs>
</svg>
