<svg width="18" height="18" viewBox="0 0 18 18" fill="none" xmlns="http://www.w3.org/2000/svg">
<path d="M1.49951 15C1.08701 15 0.734012 14.8533 0.440512 14.5597C0.146512 14.2657 -0.000488281 13.9125 -0.000488281 13.5V4.5C-0.000488281 4.0875 0.146512 3.7345 0.440512 3.441C0.734012 3.147 1.08701 3 1.49951 3H5.38076C5.58076 3 5.77151 3.0375 5.95301 3.1125C6.13401 3.1875 6.29326 3.29375 6.43076 3.43125L7.49951 4.5H13.4995C13.912 4.5 14.2653 4.647 14.5593 4.941C14.8528 5.2345 14.9995 5.5875 14.9995 6V13.5C14.9995 13.9125 14.8528 14.2657 14.5593 14.5597C14.2653 14.8533 13.912 15 13.4995 15H1.49951Z" fill="white"/>
</svg>
