<svg width="16" height="15" viewBox="0 0 16 15" fill="none" xmlns="http://www.w3.org/2000/svg">
<path d="M9.66201 10.9125L6.99951 8.25V4.5H8.49951V7.63125L10.712 9.84375L9.66201 10.9125ZM6.99951 3V1.5H8.49951V3H6.99951ZM12.2495 8.25V6.75H13.7495V8.25H12.2495ZM6.99951 13.5V12H8.49951V13.5H6.99951ZM1.74951 8.25V6.75H3.24951V8.25H1.74951ZM7.74951 15C6.71201 15 5.73701 14.803 4.82451 14.409C3.91201 14.0155 3.11826 13.4813 2.44326 12.8063C1.76826 12.1313 1.23401 11.3375 0.840512 10.425C0.446512 9.5125 0.249512 8.5375 0.249512 7.5C0.249512 6.4625 0.446512 5.4875 0.840512 4.575C1.23401 3.6625 1.76826 2.86875 2.44326 2.19375C3.11826 1.51875 3.91201 0.98425 4.82451 0.59025C5.73701 0.19675 6.71201 0 7.74951 0C8.78701 0 9.76201 0.19675 10.6745 0.59025C11.587 0.98425 12.3808 1.51875 13.0558 2.19375C13.7308 2.86875 14.265 3.6625 14.6585 4.575C15.0525 5.4875 15.2495 6.4625 15.2495 7.5C15.2495 8.5375 15.0525 9.5125 14.6585 10.425C14.265 11.3375 13.7308 12.1313 13.0558 12.8063C12.3808 13.4813 11.587 14.0155 10.6745 14.409C9.76201 14.803 8.78701 15 7.74951 15ZM7.74951 13.5C9.42451 13.5 10.8433 12.9187 12.0058 11.7562C13.1683 10.5937 13.7495 9.175 13.7495 7.5C13.7495 5.825 13.1683 4.40625 12.0058 3.24375C10.8433 2.08125 9.42451 1.5 7.74951 1.5C6.07451 1.5 4.65576 2.08125 3.49326 3.24375C2.33076 4.40625 1.74951 5.825 1.74951 7.5C1.74951 9.175 2.33076 10.5937 3.49326 11.7562C4.65576 12.9187 6.07451 13.5 7.74951 13.5Z" fill="#003478"/>
</svg>
