<svg width="40" height="36" viewBox="0 0 40 36" fill="none" xmlns="http://www.w3.org/2000/svg">
<g clip-path="url(#clip0_6804_7438)">
<path d="M0 4.43769C0 1.99003 1.99306 0 4.44444 0H15.5556V8.87538C15.5556 10.1027 16.5486 11.0942 17.7778 11.0942H26.6667V13.7707C21.5347 15.2199 17.7778 19.928 17.7778 25.5167C17.7778 29.6146 19.7986 33.2341 22.8958 35.453C22.6736 35.4876 22.4514 35.5015 22.2222 35.5015H4.44444C1.99306 35.5015 0 33.5115 0 31.0638V4.43769ZM26.6667 8.87538H17.7778V0L26.6667 8.87538ZM20 25.5167C20 22.8686 21.0536 20.3289 22.9289 18.4564C24.8043 16.5839 27.3478 15.5319 30 15.5319C32.6522 15.5319 35.1957 16.5839 37.0711 18.4564C38.9464 20.3289 40 22.8686 40 25.5167C40 28.1649 38.9464 30.7045 37.0711 32.577C35.1957 34.4496 32.6522 35.5015 30 35.5015C27.3478 35.5015 24.8043 34.4496 22.9289 32.577C21.0536 30.7045 20 28.1649 20 25.5167ZM34.6736 22.5143C34.2431 22.0844 33.5347 22.0844 33.1042 22.5143L28.8889 26.7232L26.8958 24.7332C26.4653 24.3033 25.7569 24.3033 25.3264 24.7332C24.8958 25.1631 24.8958 25.8703 25.3264 26.3002L28.1042 29.0738C28.5347 29.5037 29.2431 29.5037 29.6736 29.0738L34.6736 24.0814C35.1042 23.6515 35.1042 22.9442 34.6736 22.5143Z" fill="#003478"/>
</g>
<defs>
<clipPath id="clip0_6804_7438">
<rect width="40" height="35.5015" fill="white"/>
</clipPath>
</defs>
</svg>
