<svg width="14" height="15" viewBox="0 0 14 15" fill="none" xmlns="http://www.w3.org/2000/svg">
<path d="M1.94231 0.0253906C1.42718 0.0253906 0.933142 0.238701 0.568889 0.618396C0.204635 0.998091 0 1.51307 0 2.05004V12.1733C0 12.7102 0.204635 13.2252 0.568889 13.6049C0.933142 13.9846 1.42718 14.1979 1.94231 14.1979H11.6538C12.169 14.1979 12.663 13.9846 13.0273 13.6049C13.3915 13.2252 13.5962 12.7102 13.5962 12.1733V2.05004C13.5962 1.51307 13.3915 0.998091 13.0273 0.618396C12.663 0.238701 12.169 0.0253906 11.6538 0.0253906H1.94231ZM5.82692 10.5677L3.19801 7.82737L4.57122 6.39594L5.82692 7.70488L9.51051 3.86513L10.8837 5.29656L5.82692 10.5677Z" fill="#003478"/>
</svg>
