<svg width="32" height="32" viewBox="0 0 32 32" fill="none" xmlns="http://www.w3.org/2000/svg">
<path opacity="0.6" d="M26.6667 14.6667V6.36533V6.36533C26.6667 5.05867 25.608 4 24.3013 4H6.36533C5.05867 4 4 5.05867 4 6.36533V24.3013C4 25.608 5.05867 26.6667 6.36533 26.6667H12" stroke="#003478" stroke-width="2" stroke-linecap="round" stroke-linejoin="round"/>
<path d="M9.40267 15.264C9.53333 15.3947 9.53333 15.6053 9.40267 15.736C9.272 15.8667 9.06133 15.8667 8.93067 15.736C8.8 15.6053 8.8 15.3947 8.93067 15.264C9.06133 15.1347 9.272 15.1347 9.40267 15.264" stroke="#003478" stroke-width="2" stroke-linecap="round" stroke-linejoin="round"/>
<path d="M21.6867 9.5H14.6733" stroke="#003478" stroke-width="2" stroke-linecap="round" stroke-linejoin="round"/>
<path d="M9.40267 9.268C9.53333 9.39867 9.53333 9.60934 9.40267 9.74C9.272 9.87067 9.06133 9.87067 8.93067 9.74C8.8 9.60934 8.8 9.39867 8.93067 9.268C9.06133 9.13734 9.272 9.13867 9.40267 9.268" stroke="#003478" stroke-width="2" stroke-linecap="round" stroke-linejoin="round"/>
<path d="M21.6867 15.5H14.6733" stroke="#003478" stroke-width="2" stroke-linecap="round" stroke-linejoin="round"/>
<path opacity="0.6" fill-rule="evenodd" clip-rule="evenodd" d="M16.3333 22.3333V27C16.3333 28.288 17.3786 29.3333 18.6666 29.3333H25.6666C26.9546 29.3333 28 28.288 28 27V22.3333C28 21.0453 26.9546 20 25.6666 20H18.6666C17.3786 20 16.3333 21.0453 16.3333 22.3333Z" stroke="#003478" stroke-width="2" stroke-linecap="round" stroke-linejoin="round"/>
<path d="M28 24.2293H16.3333" stroke="#003478" stroke-width="2" stroke-linecap="round" stroke-linejoin="round"/>
</svg>
