<svg width="18" height="18" viewBox="0 0 18 18" fill="none" xmlns="http://www.w3.org/2000/svg">
<path d="M3.0375 15.75C2.9125 15.75 2.78125 15.747 2.64375 15.741C2.50625 15.7345 2.375 15.725 2.25 15.7125V11.325L6 10.575L8.175 12.75C9.125 12.175 9.997 11.4937 10.791 10.7062C11.5845 9.91875 12.2437 9.075 12.7687 8.175L10.6313 6.01875L11.325 2.25H15.7125C15.7375 2.375 15.75 2.50625 15.75 2.64375V3.0375C15.75 4.65 15.3905 6.22175 14.6715 7.75275C13.953 9.28425 13.003 10.6437 11.8215 11.8312C10.6405 13.0188 9.2845 13.9688 7.7535 14.6813C6.222 15.3938 4.65 15.75 3.0375 15.75Z" fill="white"/>
</svg>
