<svg width="20" height="20" viewBox="0 0 20 20" fill="none" xmlns="http://www.w3.org/2000/svg">
<path d="M3.72921 12.0625C3.59032 11.7014 3.48976 11.3367 3.42754 10.9683C3.36476 10.6006 3.33337 10.2292 3.33337 9.85417C3.33337 7.99305 3.97921 6.40972 5.27087 5.10417C6.56254 3.79861 8.13893 3.14583 10 3.14583H10.1459L9.39587 2.39583C9.2431 2.24306 9.16671 2.04861 9.16671 1.8125C9.16671 1.57639 9.2431 1.38194 9.39587 1.22917C9.54865 1.07639 9.7431 1 9.97921 1C10.2153 1 10.4098 1.07639 10.5625 1.22917L12.7292 3.39583C12.8125 3.47917 12.8717 3.56944 12.9067 3.66667C12.9412 3.76389 12.9584 3.86806 12.9584 3.97917C12.9584 4.09028 12.9412 4.19444 12.9067 4.29167C12.8717 4.38889 12.8125 4.47917 12.7292 4.5625L10.5625 6.72917C10.4098 6.88194 10.2153 6.95833 9.97921 6.95833C9.7431 6.95833 9.54865 6.88194 9.39587 6.72917C9.2431 6.57639 9.16671 6.38194 9.16671 6.14583C9.16671 5.90972 9.2431 5.71528 9.39587 5.5625L10.1459 4.8125H10C8.61115 4.8125 7.4306 5.30194 6.45837 6.28083C5.48615 7.26028 5.00004 8.45139 5.00004 9.85417C5.00004 10.1319 5.02449 10.4028 5.07337 10.6667C5.12171 10.9306 5.19449 11.1944 5.29171 11.4583C5.34726 11.5972 5.36115 11.7464 5.33337 11.9058C5.3056 12.0658 5.23615 12.2014 5.12504 12.3125C4.87504 12.5625 4.60782 12.6633 4.32337 12.615C4.03837 12.5661 3.84032 12.3819 3.72921 12.0625ZM9.43754 18.3958L7.27087 16.2292C7.18754 16.1458 7.12865 16.0556 7.09421 15.9583C7.05921 15.8611 7.04171 15.7569 7.04171 15.6458C7.04171 15.5347 7.05921 15.4306 7.09421 15.3333C7.12865 15.2361 7.18754 15.1458 7.27087 15.0625L9.43754 12.8958C9.59032 12.7431 9.78476 12.6667 10.0209 12.6667C10.257 12.6667 10.4514 12.7431 10.6042 12.8958C10.757 13.0486 10.8334 13.2431 10.8334 13.4792C10.8334 13.7153 10.757 13.9097 10.6042 14.0625L9.85421 14.8125H10C11.3889 14.8125 12.5695 14.3231 13.5417 13.3442C14.5139 12.3647 15 11.1736 15 9.77083C15 9.49305 14.9759 9.22222 14.9275 8.95833C14.8787 8.69444 14.8056 8.43055 14.7084 8.16667C14.6528 8.02778 14.6389 7.87833 14.6667 7.71833C14.6945 7.55889 14.7639 7.42361 14.875 7.3125C15.125 7.0625 15.3923 6.96167 15.6767 7.01C15.9617 7.05889 16.1598 7.24305 16.2709 7.5625C16.4098 7.92361 16.5106 8.28805 16.5734 8.65583C16.6356 9.02417 16.6667 9.39583 16.6667 9.77083C16.6667 11.6319 16.0209 13.2153 14.7292 14.5208C13.4375 15.8264 11.8612 16.4792 10 16.4792H9.85421L10.6042 17.2292C10.757 17.3819 10.8334 17.5764 10.8334 17.8125C10.8334 18.0486 10.757 18.2431 10.6042 18.3958C10.4514 18.5486 10.257 18.625 10.0209 18.625C9.78476 18.625 9.59032 18.5486 9.43754 18.3958Z" fill="#33303E"/>
</svg>
