<svg width="40" height="41" viewBox="0 0 40 41" fill="none" xmlns="http://www.w3.org/2000/svg">
<ellipse cx="20" cy="20.0563" rx="20" ry="20.0563" fill="#F0F4F9"/>
<path d="M15.4167 29.1423C14.9125 29.1423 14.4811 28.9625 14.1223 28.6027C13.763 28.2424 13.5833 27.8094 13.5833 27.3039V10.7574C13.5833 10.2519 13.763 9.81889 14.1223 9.45854C14.4811 9.09881 14.9125 8.91895 15.4167 8.91895H24.5833C25.0875 8.91895 25.5192 9.09881 25.8786 9.45854C26.2373 9.81889 26.4167 10.2519 26.4167 10.7574V27.3039C26.4167 27.8094 26.2373 28.2424 25.8786 28.6027C25.5192 28.9625 25.0875 29.1423 24.5833 29.1423H15.4167ZM20 26.8442C20.2597 26.8442 20.4776 26.756 20.6536 26.5795C20.829 26.4036 20.9167 26.1854 20.9167 25.925C20.9167 25.6645 20.829 25.4464 20.6536 25.2705C20.4776 25.094 20.2597 25.0057 20 25.0057C19.7403 25.0057 19.5227 25.094 19.3473 25.2705C19.1713 25.4464 19.0833 25.6645 19.0833 25.925C19.0833 26.1854 19.1713 26.4036 19.3473 26.5795C19.5227 26.756 19.7403 26.8442 20 26.8442ZM15.4167 22.7076H24.5833V13.5152H15.4167V22.7076Z" fill="#003478"/>
</svg>
