<svg width="19" height="18" viewBox="0 0 19 18" fill="none" xmlns="http://www.w3.org/2000/svg">
<path d="M8.99988 9C9.41238 9 9.76563 8.853 10.0596 8.559C10.3531 8.2655 10.4999 7.9125 10.4999 7.5C10.4999 7.0875 10.3531 6.73425 10.0596 6.44025C9.76563 6.14675 9.41238 6 8.99988 6C8.58738 6 8.23438 6.14675 7.94088 6.44025C7.64688 6.73425 7.49988 7.0875 7.49988 7.5C7.49988 7.9125 7.64688 8.2655 7.94088 8.559C8.23438 8.853 8.58738 9 8.99988 9ZM8.99988 16.2188C8.89988 16.2188 8.79988 16.2 8.69988 16.1625C8.59988 16.125 8.51238 16.075 8.43738 16.0125C6.61238 14.4 5.24988 12.9032 4.34988 11.5223C3.44988 10.1407 2.99988 8.85 2.99988 7.65C2.99988 5.775 3.60313 4.28125 4.80963 3.16875C6.01563 2.05625 7.41238 1.5 8.99988 1.5C10.5874 1.5 11.9841 2.05625 13.1901 3.16875C14.3966 4.28125 14.9999 5.775 14.9999 7.65C14.9999 8.85 14.5499 10.1407 13.6499 11.5223C12.7499 12.9032 11.3874 14.4 9.56238 16.0125C9.48738 16.075 9.39988 16.125 9.29988 16.1625C9.19988 16.2 9.09988 16.2188 8.99988 16.2188Z" fill="#003478"/>
</svg>
