<svg width="19" height="19" viewBox="0 0 19 19" fill="none" xmlns="http://www.w3.org/2000/svg">
<path d="M10.0542 12.1125L12.1125 10.0541C12.2577 9.90901 12.3302 9.72429 12.3302 9.49998C12.3302 9.27567 12.2577 9.09095 12.1125 8.94581L10.0344 6.86769C9.88928 6.72255 9.70798 6.65315 9.49054 6.65948C9.27257 6.66634 9.09101 6.74234 8.94587 6.88748C8.80073 7.03262 8.72817 7.21734 8.72817 7.44165C8.72817 7.66595 8.80073 7.85067 8.94587 7.99581L9.65837 8.70831H7.10525C6.88094 8.70831 6.69622 8.78405 6.55108 8.93552C6.40594 9.08752 6.33337 9.27567 6.33337 9.49998C6.33337 9.72429 6.40937 9.91217 6.56137 10.0636C6.71285 10.2156 6.90073 10.2916 7.12504 10.2916H9.65837L8.92608 11.0239C8.78094 11.1691 8.71154 11.3506 8.71787 11.5686C8.72473 11.786 8.80073 11.9673 8.94587 12.1125C9.09101 12.2576 9.27573 12.3302 9.50004 12.3302C9.72435 12.3302 9.90907 12.2576 10.0542 12.1125ZM9.50004 17.4166C8.4049 17.4166 7.37574 17.2087 6.41254 16.7928C5.44935 16.3775 4.6115 15.8135 3.899 15.101C3.1865 14.3885 2.62257 13.5507 2.20721 12.5875C1.79132 11.6243 1.58337 10.5951 1.58337 9.49998C1.58337 8.40484 1.79132 7.37567 2.20721 6.41248C2.62257 5.44929 3.1865 4.61144 3.899 3.89894C4.6115 3.18644 5.44935 2.62224 6.41254 2.20635C7.37574 1.79099 8.4049 1.58331 9.50004 1.58331C10.5952 1.58331 11.6243 1.79099 12.5875 2.20635C13.5507 2.62224 14.3886 3.18644 15.1011 3.89894C15.8136 4.61144 16.3775 5.44929 16.7929 6.41248C17.2088 7.37567 17.4167 8.40484 17.4167 9.49998C17.4167 10.5951 17.2088 11.6243 16.7929 12.5875C16.3775 13.5507 15.8136 14.3885 15.1011 15.101C14.3886 15.8135 13.5507 16.3775 12.5875 16.7928C11.6243 17.2087 10.5952 17.4166 9.50004 17.4166Z" fill="#003478"/>
</svg>
