<svg width="38" height="38" viewBox="0 0 38 38" fill="none" xmlns="http://www.w3.org/2000/svg">
<path d="M26.125 23.75C32.6859 23.75 38 18.4359 38 11.875C38 10.7395 37.8367 9.64102 37.5398 8.59453C37.3098 7.79297 36.3227 7.61484 35.7363 8.20117L30.0363 13.9012C29.8137 14.1238 29.5094 14.25 29.1977 14.25H24.9375C24.2844 14.25 23.75 13.7156 23.75 13.0625V8.80234C23.75 8.49062 23.8762 8.18633 24.0988 7.96367L29.7988 2.26367C30.3852 1.67734 30.1996 0.690234 29.4055 0.460156C28.359 0.163281 27.2605 0 26.125 0C19.5641 0 14.25 5.31406 14.25 11.875C14.25 13.2926 14.5023 14.6582 14.9551 15.9199L1.47695 29.398C0.534375 30.3406 0 31.6246 0 32.9605C0 35.7438 2.25625 38 5.03945 38C6.37539 38 7.65938 37.4656 8.60195 36.523L22.0801 23.0449C23.3418 23.5051 24.7074 23.75 26.125 23.75ZM5.9375 30.2812C6.40992 30.2812 6.86299 30.4689 7.19703 30.803C7.53108 31.137 7.71875 31.5901 7.71875 32.0625C7.71875 32.5349 7.53108 32.988 7.19703 33.322C6.86299 33.6561 6.40992 33.8438 5.9375 33.8438C5.46508 33.8438 5.01202 33.6561 4.67797 33.322C4.34392 32.988 4.15625 32.5349 4.15625 32.0625C4.15625 31.5901 4.34392 31.137 4.67797 30.803C5.01202 30.4689 5.46508 30.2812 5.9375 30.2812Z" fill="#003478"/>
</svg>
