<svg width="46" height="28" viewBox="0 0 46 28" fill="none" xmlns="http://www.w3.org/2000/svg">
<path d="M4.24967 0C1.93717 0 0.0830078 1.85417 0.0830078 4.16667V20.8333H4.24967C4.24967 22.4909 4.90816 24.0806 6.08026 25.2528C7.25236 26.4249 8.84207 27.0833 10.4997 27.0833C12.1573 27.0833 13.747 26.4249 14.9191 25.2528C16.0912 24.0806 16.7497 22.4909 16.7497 20.8333H29.2497C29.2497 22.4909 29.9082 24.0806 31.0803 25.2528C32.2524 26.4249 33.8421 27.0833 35.4997 27.0833C37.1573 27.0833 38.747 26.4249 39.9191 25.2528C41.0912 24.0806 41.7497 22.4909 41.7497 20.8333H45.9163V12.5C45.9163 10.1875 44.0622 8.33333 41.7497 8.33333L35.4997 0H4.24967ZM29.2497 3.125H34.458L38.5413 8.33333H29.2497V3.125ZM10.4997 17.7083C11.3285 17.7083 12.1233 18.0376 12.7094 18.6236C13.2954 19.2097 13.6247 20.0045 13.6247 20.8333C13.6247 21.6621 13.2954 22.457 12.7094 23.043C12.1233 23.6291 11.3285 23.9583 10.4997 23.9583C9.67087 23.9583 8.87602 23.6291 8.28997 23.043C7.70391 22.457 7.37468 21.6621 7.37468 20.8333C7.37468 20.0045 7.70391 19.2097 8.28997 18.6236C8.87602 18.0376 9.67087 17.7083 10.4997 17.7083M35.4997 17.7083C36.3285 17.7083 37.1233 18.0376 37.7094 18.6236C38.2954 19.2097 38.6247 20.0045 38.6247 20.8333C38.6247 21.6621 38.2954 22.457 37.7094 23.043C37.1233 23.6291 36.3285 23.9583 35.4997 23.9583C34.6709 23.9583 33.876 23.6291 33.29 23.043C32.7039 22.457 32.3747 21.6621 32.3747 20.8333C32.3747 20.0045 32.7039 19.2097 33.29 18.6236C33.876 18.0376 34.6709 17.7083 35.4997 17.7083Z" fill="#003478"/>
</svg>
