<svg width="42" height="42" viewBox="0 0 42 42" fill="none" xmlns="http://www.w3.org/2000/svg">
<path d="M21 35.0525C13.2825 35.0525 6.9475 28.7175 6.9475 21C6.9475 13.2825 13.2825 6.9475 21 6.9475C28.7175 6.9475 35.0525 13.2825 35.0525 21C35.0525 28.7175 28.7175 35.0525 21 35.0525ZM21 38.5C30.695 38.5 38.5 30.695 38.5 21C38.5 11.305 30.695 3.5 21 3.5C11.305 3.5 3.5 11.305 3.5 21C3.5 30.695 11.305 38.5 21 38.5ZM24.29 21.8225L28 18.13V28H18.13L21.8225 24.29L13.125 15.575L15.575 13.125" fill="#003478"/>
</svg>
