<svg width="42" height="42" viewBox="0 0 42 42" fill="none" xmlns="http://www.w3.org/2000/svg">
<path d="M12.5 26.75C11.0417 26.75 9.80208 26.2396 8.78125 25.2188C7.76042 24.1979 7.25 22.9583 7.25 21.5C7.25 20.0417 7.76042 18.8021 8.78125 17.7812C9.80208 16.7604 11.0417 16.25 12.5 16.25C13.9583 16.25 15.1979 16.7604 16.2188 17.7812C17.2396 18.8021 17.75 20.0417 17.75 21.5C17.75 22.9583 17.2396 24.1979 16.2188 25.2188C15.1979 26.2396 13.9583 26.75 12.5 26.75ZM12.5 32C14.7458 32 16.7729 31.3583 18.5813 30.075C20.3896 28.7917 21.6583 27.1 22.3875 25H23L26.5 28.5L30 25L34.375 28.4563L40.5 21.4563L37.0438 18H22.3875C21.6875 16.0167 20.4555 14.3542 18.6915 13.0125C16.9263 11.6708 14.8625 11 12.5 11C9.58333 11 7.10417 12.0208 5.0625 14.0625C3.02083 16.1042 2 18.5833 2 21.5C2 24.4167 3.02083 26.8958 5.0625 28.9375C7.10417 30.9792 9.58333 32 12.5 32Z" fill="#003478"/>
</svg>
