<svg width="52" height="52" viewBox="0 0 52 52" fill="none" xmlns="http://www.w3.org/2000/svg">
<rect width="52" height="52" rx="26" fill="white"/>
<path d="M20.0518 21.4545L24.6909 18.1818H34.1818V21.4545H25.7644L21.0909 24.7273H9.63638V21.4545H20.0518ZM21.5507 29.7345L26.3371 27.9918L27.4564 31.0682L22.67 32.8093C22.8953 34.6055 22.451 36.4219 21.422 37.9113C20.393 39.4008 18.8513 40.459 17.0915 40.8838C15.3317 41.3086 13.4771 41.0702 11.8819 40.2143C10.2867 39.3583 9.06274 37.9447 8.44377 36.2434C7.8248 34.5422 7.85423 32.6725 8.52643 30.9916C9.19862 29.3106 10.4665 27.9362 12.0878 27.1309C13.7092 26.3255 15.5704 26.1457 17.316 26.6256C19.0615 27.1056 20.5691 28.2118 21.5507 29.7329V29.7345ZM15.3637 37.8182C16.4486 37.8182 17.4892 37.3872 18.2564 36.62C19.0236 35.8528 19.4546 34.8122 19.4546 33.7273C19.4546 32.6423 19.0236 31.6017 18.2564 30.8346C17.4892 30.0674 16.4486 29.6364 15.3637 29.6364C14.2787 29.6364 13.2381 30.0674 12.4709 30.8346C11.7037 31.6017 11.2727 32.6423 11.2727 33.7273C11.2727 34.8122 11.7037 35.8528 12.4709 36.62C13.2381 37.3872 14.2787 37.8182 15.3637 37.8182ZM36.6364 41.0909C35.6694 41.0909 34.7118 40.9004 33.8184 40.5304C32.925 40.1603 32.1133 39.6179 31.4295 38.9341C30.7457 38.2504 30.2033 37.4386 29.8333 36.5452C29.4632 35.6518 29.2727 34.6943 29.2727 33.7273C29.2727 32.7603 29.4632 31.8027 29.8333 30.9093C30.2033 30.0159 30.7457 29.2042 31.4295 28.5204C32.1133 27.8366 32.925 27.2942 33.8184 26.9242C34.7118 26.5541 35.6694 26.3636 36.6364 26.3636C38.5893 26.3636 40.4623 27.1394 41.8432 28.5204C43.2242 29.9013 44 31.7743 44 33.7273C44 35.6802 43.2242 37.5532 41.8432 38.9341C40.4623 40.3151 38.5893 41.0909 36.6364 41.0909ZM36.6364 37.8182C37.7213 37.8182 38.7619 37.3872 39.5291 36.62C40.2963 35.8528 40.7273 34.8122 40.7273 33.7273C40.7273 32.6423 40.2963 31.6017 39.5291 30.8346C38.7619 30.0674 37.7213 29.6364 36.6364 29.6364C35.5514 29.6364 34.5109 30.0674 33.7437 30.8346C32.9765 31.6017 32.5455 32.6423 32.5455 33.7273C32.5455 34.8122 32.9765 35.8528 33.7437 36.62C34.5109 37.3872 35.5514 37.8182 36.6364 37.8182ZM12.9091 23.0909H22.7273L26.9818 20.2551L27.44 18.5435L30.6015 19.3911L27.4564 31.06L24.4749 29.6069L24.668 28.8869L21.0909 31.2727L19.4546 28H12.9091V23.0909ZM32.696 14.9091H39.0909V19.8182H34.4829L37.6247 28.4516L34.5484 29.5709L31.0007 19.8182H30.9091V19.5695L28.6182 13.2727H24.3636V10H30.9091L32.696 14.9091Z" fill="#003478"/>
</svg>
