<svg width="33" height="34" viewBox="0 0 33 34" fill="none" xmlns="http://www.w3.org/2000/svg">
<path fill-rule="evenodd" clip-rule="evenodd" d="M13.9984 12.2H7.20156C6.31836 12.2 5.60156 11.4832 5.60156 10.6V7.4C5.60156 6.5168 6.31836 5.8 7.20156 5.8H13.9984C14.8816 5.8 15.5984 6.5168 15.5984 7.4V10.6C15.5984 11.4832 14.8816 12.2 13.9984 12.2Z" stroke="#003478" stroke-width="2" stroke-linecap="round" stroke-linejoin="round"/>
<path d="M24.9999 7.92168V7.92168C26.1711 9.09288 26.1711 10.9921 24.9999 12.1649V12.1649" stroke="#003478" stroke-width="2" stroke-linecap="round" stroke-linejoin="round"/>
<path opacity="0.6" d="M29.9508 5.8C32.2932 8.1424 32.2932 11.9424 29.9508 14.2848" stroke="#003478" stroke-width="2" stroke-linecap="round" stroke-linejoin="round"/>
<path opacity="0.6" fill-rule="evenodd" clip-rule="evenodd" d="M26.6 33H12.2C11.3168 33 10.6 32.2832 10.6 31.4V23.4C10.6 22.5168 11.3168 21.8 12.2 21.8H26.6C27.4832 21.8 28.2 22.5168 28.2 23.4V31.4C28.2 32.2832 27.4832 33 26.6 33Z" stroke="#003478" stroke-width="2" stroke-linecap="round" stroke-linejoin="round"/>
<path opacity="0.6" d="M20.2 21.8V4.2C20.2 2.432 18.768 1 17 1H4.2C2.432 1 1 2.432 1 4.2V23.4C1 25.168 2.432 26.6 4.2 26.6H10.6" stroke="#003478" stroke-width="2" stroke-linecap="round" stroke-linejoin="round"/>
<path d="M10.6 26.6H28.2" stroke="#003478" stroke-width="2" stroke-linecap="round" stroke-linejoin="round"/>
<path d="M5.8 16.984C5.7952 16.984 5.792 16.9872 5.792 16.992C5.792 16.9968 5.7952 17 5.8 17C5.8048 17 5.808 16.9968 5.808 16.992C5.808 16.9872 5.8048 16.984 5.8 16.984" stroke="#003478" stroke-width="2" stroke-linecap="round" stroke-linejoin="round"/>
<path d="M10.6 17C10.5952 17 10.592 17.0032 10.592 17.008C10.592 17.0128 10.5952 17.016 10.6 17.016C10.6048 17.016 10.608 17.0128 10.608 17.008C10.608 17.0032 10.6048 17 10.6 17" stroke="#003478" stroke-width="2" stroke-linecap="round" stroke-linejoin="round"/>
<path d="M15.4078 16.992C15.403 16.992 15.3998 16.9952 15.3998 17C15.3998 17.0048 15.403 17.008 15.4078 17.008C15.4126 17.008 15.4158 17.0048 15.4158 17C15.4158 16.9952 15.4126 16.992 15.4078 16.992" stroke="#003478" stroke-width="2" stroke-linecap="round" stroke-linejoin="round"/>
</svg>
