<svg width="40" height="36" viewBox="0 0 40 36" fill="none" xmlns="http://www.w3.org/2000/svg">
<g clip-path="url(#clip0_6905_1601)">
<path d="M0 1.66667C0 0.743056 0.743056 0 1.66667 0H4.82639C6.35417 0 7.70833 0.888889 8.34028 2.22222H36.8819C38.7083 2.22222 40.0417 3.95833 39.5625 5.72222L36.7153 16.2986C36.125 18.4792 34.1458 20 31.8889 20H11.8542L12.2292 21.9792C12.3819 22.7639 13.0694 23.3333 13.8681 23.3333H33.8889C34.8125 23.3333 35.5556 24.0764 35.5556 25C35.5556 25.9236 34.8125 26.6667 33.8889 26.6667H13.8681C11.4653 26.6667 9.40278 24.9583 8.95833 22.6042L5.375 3.78472C5.32639 3.52083 5.09722 3.33333 4.82639 3.33333H1.66667C0.743056 3.33333 0 2.59028 0 1.66667ZM8.88889 32.2222C8.88889 31.7845 8.97511 31.351 9.14262 30.9466C9.31014 30.5422 9.55567 30.1747 9.8652 29.8652C10.1747 29.5557 10.5422 29.3101 10.9466 29.1426C11.351 28.9751 11.7845 28.8889 12.2222 28.8889C12.66 28.8889 13.0934 28.9751 13.4978 29.1426C13.9023 29.3101 14.2697 29.5557 14.5792 29.8652C14.8888 30.1747 15.1343 30.5422 15.3018 30.9466C15.4693 31.351 15.5556 31.7845 15.5556 32.2222C15.5556 32.66 15.4693 33.0934 15.3018 33.4978C15.1343 33.9023 14.8888 34.2697 14.5792 34.5792C14.2697 34.8888 13.9023 35.1343 13.4978 35.3018C13.0934 35.4693 12.66 35.5556 12.2222 35.5556C11.7845 35.5556 11.351 35.4693 10.9466 35.3018C10.5422 35.1343 10.1747 34.8888 9.8652 34.5792C9.55567 34.2697 9.31014 33.9023 9.14262 33.4978C8.97511 33.0934 8.88889 32.66 8.88889 32.2222ZM32.2222 28.8889C33.1063 28.8889 33.9541 29.2401 34.5792 29.8652C35.2044 30.4903 35.5556 31.3382 35.5556 32.2222C35.5556 33.1063 35.2044 33.9541 34.5792 34.5792C33.9541 35.2044 33.1063 35.5556 32.2222 35.5556C31.3382 35.5556 30.4903 35.2044 29.8652 34.5792C29.2401 33.9541 28.8889 33.1063 28.8889 32.2222C28.8889 31.3382 29.2401 30.4903 29.8652 29.8652C30.4903 29.2401 31.3382 28.8889 32.2222 28.8889Z" fill="#003478"/>
</g>
<defs>
<clipPath id="clip0_6905_1601">
<rect width="40" height="35.5556" fill="white"/>
</clipPath>
</defs>
</svg>
