<svg width="23" height="30" viewBox="0 0 23 30" fill="none" xmlns="http://www.w3.org/2000/svg">
<g clip-path="url(#clip0_6712_1840)">
<path d="M11.0208 12.1875C11.0208 11.9293 10.8056 11.7188 10.5417 11.7188C10.2778 11.7188 10.0625 11.9297 10.0625 12.1875C10.0625 12.3083 10.0803 13.5533 10.61 15.1318C10.7273 14.625 11.0208 13.2539 11.0208 12.1875ZM15.3333 0V7.5H23L15.3333 0ZM4.79167 24.75C4.79167 25.3158 5.41878 25.4514 5.65297 25.1235C5.94586 24.7207 6.51667 23.9063 7.19349 22.7695C6.34177 23.2365 5.56133 23.7838 4.91625 24.4283C4.83659 24.5098 4.79167 24.627 4.79167 24.75ZM13.4167 7.5V0H2.875C1.28716 0 0 1.25918 0 2.8125V27.1875C0 28.7402 1.28716 30 2.875 30H20.125C21.7128 30 23 28.7408 23 27.1875V9.375H15.3872C14.2732 9.375 13.4167 8.53711 13.4167 7.5ZM17.4896 18.2812C18.9427 18.2812 20.125 19.4379 20.125 20.8594C20.125 22.3049 18.9906 23.4375 17.5417 23.4375C17.1827 23.4375 16.8343 23.3817 16.5103 23.2731C15.3088 22.8772 14.2115 22.338 13.243 21.6683C11.8127 21.9676 10.5201 22.3433 9.39107 22.7874C8.52677 24.329 7.73615 25.4915 7.21266 26.2099C6.71432 26.8242 6.0375 27.1875 5.26724 27.1875C3.94833 27.1875 2.875 26.1387 2.875 24.8496C2.875 24.1512 3.09901 23.5711 3.54464 23.1205C4.51375 22.1525 5.78294 21.3047 7.31927 20.598C8.02305 19.2604 8.63339 17.9004 9.13591 16.5469C8.15781 14.2031 8.14583 12.2109 8.14583 12.1875C8.14583 10.8955 9.22096 9.84375 10.5417 9.84375C11.863 9.84375 12.9375 10.8955 12.9375 12.1875C12.9375 13.5996 12.5046 15.4541 12.4022 15.8572C12.3419 16.049 12.2803 16.239 12.2176 16.4269C12.6865 17.2742 13.2777 18.0213 13.9809 18.6564C15.7586 18.3633 17.0284 18.2871 17.226 18.2812H17.4896ZM9.3737 20.7773C10.4506 20.3965 11.5377 20.107 12.5434 19.8873C11.7995 19.1807 11.2155 18.4154 10.7585 17.6514C10.3201 18.7852 9.84687 19.834 9.3737 20.7773ZM17.5435 21.5625C17.9089 21.5625 18.2083 21.2695 18.2083 20.9121C18.2083 20.4727 17.8849 20.1562 17.4896 20.1562H17.25C17.2294 20.1581 16.242 20.213 14.7973 20.4346C15.4723 20.8447 16.242 21.2074 17.1236 21.4963C17.25 21.5391 17.3997 21.5625 17.5435 21.5625Z" fill="#4E4B59"/>
</g>
<defs>
<clipPath id="clip0_6712_1840">
<rect width="23" height="30" fill="white"/>
</clipPath>
</defs>
</svg>
