<svg width="20" height="17" viewBox="0 0 20 17" fill="none" xmlns="http://www.w3.org/2000/svg">
<path d="M19.9818 1.92402C19.2585 2.2403 18.4714 2.46792 17.6607 2.55657C18.5024 2.04966 19.1327 1.24882 19.4334 0.304306C18.6436 0.78061 17.7783 1.1146 16.876 1.29147C16.4989 0.88277 16.0428 0.557182 15.5361 0.334993C15.0294 0.112803 14.4831 -0.00122625 13.931 9.94449e-06C11.6974 9.94449e-06 9.90111 1.83537 9.90111 4.08764C9.90111 4.40391 9.93893 4.72019 10.0004 5.02448C6.65593 4.84718 3.67309 3.22746 1.69005 0.747571C1.32872 1.37321 1.13937 2.08558 1.1417 2.81055C1.1417 4.229 1.85314 5.47973 2.93802 6.21531C2.29868 6.18979 1.67432 6.01164 1.11571 5.69537V5.74569C1.11571 7.732 2.50076 9.37807 4.34671 9.75664C4.00011 9.84791 3.64357 9.8946 3.28547 9.89561C3.02311 9.89561 2.77493 9.86926 2.5244 9.83332C3.03493 11.453 4.52162 12.6295 6.29193 12.6678C4.90688 13.7676 3.17202 14.4145 1.28825 14.4145C0.950255 14.4145 0.638263 14.4025 0.314453 14.3642C2.10132 15.5263 4.22144 16.1972 6.50466 16.1972C13.9168 16.1972 17.9727 9.97229 17.9727 4.56924C17.9727 4.39193 17.9727 4.21463 17.9609 4.03732C18.7456 3.45508 19.4334 2.73388 19.9818 1.92402Z" fill="#003478"/>
</svg>
