<svg width="52" height="52" viewBox="0 0 52 52" fill="none" xmlns="http://www.w3.org/2000/svg">
<rect width="52" height="52" rx="26" fill="white"/>
<path d="M16 36.3333V38C16 38.4722 15.8406 38.8678 15.5217 39.1867C15.2017 39.5067 14.8056 39.6667 14.3333 39.6667H12.6667C12.1944 39.6667 11.7989 39.5067 11.48 39.1867C11.16 38.8678 11 38.4722 11 38V24.6667L14.5 14.6667C14.6667 14.1667 14.9656 13.7639 15.3967 13.4583C15.8267 13.1528 16.3056 13 16.8333 13H35.1667C35.6944 13 36.1739 13.1528 36.605 13.4583C37.035 13.7639 37.3333 14.1667 37.5 14.6667L41 24.6667V38C41 38.4722 40.84 38.8678 40.52 39.1867C40.2011 39.5067 39.8056 39.6667 39.3333 39.6667H37.6667C37.1944 39.6667 36.7989 39.5067 36.48 39.1867C36.16 38.8678 36 38.4722 36 38V36.3333H16ZM15.6667 21.3333H36.3333L34.5833 16.3333H17.4167L15.6667 21.3333ZM18.5 31.3333C19.1944 31.3333 19.7844 31.09 20.27 30.6033C20.7567 30.1178 21 29.5278 21 28.8333C21 28.1389 20.7567 27.5489 20.27 27.0633C19.7844 26.5767 19.1944 26.3333 18.5 26.3333C17.8056 26.3333 17.2156 26.5767 16.73 27.0633C16.2433 27.5489 16 28.1389 16 28.8333C16 29.5278 16.2433 30.1178 16.73 30.6033C17.2156 31.09 17.8056 31.3333 18.5 31.3333ZM33.5 31.3333C34.1944 31.3333 34.7844 31.09 35.27 30.6033C35.7567 30.1178 36 29.5278 36 28.8333C36 28.1389 35.7567 27.5489 35.27 27.0633C34.7844 26.5767 34.1944 26.3333 33.5 26.3333C32.8056 26.3333 32.2156 26.5767 31.73 27.0633C31.2433 27.5489 31 28.1389 31 28.8333C31 29.5278 31.2433 30.1178 31.73 30.6033C32.2156 31.09 32.8056 31.3333 33.5 31.3333Z" fill="#003478"/>
</svg>
