<svg width="14" height="15" viewBox="0 0 14 15" fill="none" xmlns="http://www.w3.org/2000/svg">
<path d="M6.22173 9V7.5H7.77729V9H6.22173ZM3.11062 9V7.5H4.66618V9H3.11062ZM9.33285 9V7.5H10.8884V9H9.33285ZM6.22173 12V10.5H7.77729V12H6.22173ZM3.11062 12V10.5H4.66618V12H3.11062ZM9.33285 12V10.5H10.8884V12H9.33285ZM-0.000488281 15V1.5H2.33285V0H3.8884V1.5H10.1106V0H11.6662V1.5H13.9995V15H-0.000488281ZM1.55507 13.5H12.444V6H1.55507V13.5ZM1.55507 4.5H12.444V3H1.55507V4.5ZM1.55507 4.5V3V4.5Z" fill="#003478"/>
</svg>
