<svg width="32" height="32" viewBox="0 0 32 32" fill="none" xmlns="http://www.w3.org/2000/svg">
<path d="M26.6667 26.6667V13.04" stroke="#003478" stroke-width="2" stroke-linecap="round" stroke-linejoin="round"/>
<path opacity="0.6" fill-rule="evenodd" clip-rule="evenodd" d="M5.73459 13.0373C3.47059 13.0213 1.99459 10.78 2.97593 8.84799L5.26393 4.34532C5.78393 3.31866 6.87993 2.66666 8.08259 2.66666H23.9173C25.1199 2.66666 26.2159 3.31866 26.7373 4.34532L29.0253 8.84799C30.0066 10.78 28.5306 13.0213 26.2666 13.0373C24.3773 13.0373 22.8453 11.7467 22.8453 10.1533V10.0893C22.8453 11.7173 21.3133 13.0373 19.4239 13.0373C17.5319 13.0373 15.9999 11.7173 15.9999 10.0893C15.9999 11.7173 14.4679 13.0373 12.5786 13.0373C10.6893 13.0373 9.15726 11.7173 9.15726 10.0893V10.1533C9.15593 11.7467 7.62393 13.0373 5.73459 13.0373Z" stroke="#003478" stroke-width="2" stroke-linecap="round" stroke-linejoin="round"/>
<path d="M18.6667 26.6667H28" stroke="#003478" stroke-width="2" stroke-linecap="round" stroke-linejoin="round"/>
<path fill-rule="evenodd" clip-rule="evenodd" d="M9.53329 19.5347C9.95729 19.0574 10.688 18.52 11.804 18.52C13.7533 18.52 15.064 20.2854 15.064 21.9294C15.0626 25.3667 10.6266 28 9.53329 28C8.43996 28 4.00262 25.3667 4.00262 21.9294C4.00262 20.284 5.31062 18.52 7.26262 18.52C8.37729 18.52 9.10929 19.0574 9.53329 19.5347Z" stroke="#003478" stroke-width="2" stroke-linecap="round" stroke-linejoin="round"/>
</svg>
