<svg width="42" height="42" viewBox="0 0 42 42" fill="none" xmlns="http://www.w3.org/2000/svg">
<path d="M10.5 33.25V35C10.5 35.4958 10.3326 35.9112 9.99775 36.246C9.66175 36.582 9.24583 36.75 8.75 36.75H7C6.50417 36.75 6.08883 36.582 5.754 36.246C5.418 35.9112 5.25 35.4958 5.25 35V21L8.925 10.5C9.1 9.975 9.41383 9.55208 9.8665 9.23125C10.318 8.91042 10.8208 8.75 11.375 8.75H30.625C31.1792 8.75 31.6826 8.91042 32.1353 9.23125C32.5868 9.55208 32.9 9.975 33.075 10.5L36.75 21V35C36.75 35.4958 36.582 35.9112 36.246 36.246C35.9112 36.582 35.4958 36.75 35 36.75H33.25C32.7542 36.75 32.3388 36.582 32.004 36.246C31.668 35.9112 31.5 35.4958 31.5 35V33.25H10.5ZM10.15 17.5H31.85L30.0125 12.25H11.9875L10.15 17.5ZM13.125 28C13.8542 28 14.4737 27.7445 14.9835 27.2335C15.4945 26.7237 15.75 26.1042 15.75 25.375C15.75 24.6458 15.4945 24.0263 14.9835 23.5165C14.4737 23.0055 13.8542 22.75 13.125 22.75C12.3958 22.75 11.7763 23.0055 11.2665 23.5165C10.7555 24.0263 10.5 24.6458 10.5 25.375C10.5 26.1042 10.7555 26.7237 11.2665 27.2335C11.7763 27.7445 12.3958 28 13.125 28ZM28.875 28C29.6042 28 30.2237 27.7445 30.7335 27.2335C31.2445 26.7237 31.5 26.1042 31.5 25.375C31.5 24.6458 31.2445 24.0263 30.7335 23.5165C30.2237 23.0055 29.6042 22.75 28.875 22.75C28.1458 22.75 27.5263 23.0055 27.0165 23.5165C26.5055 24.0263 26.25 24.6458 26.25 25.375C26.25 26.1042 26.5055 26.7237 27.0165 27.2335C27.5263 27.7445 28.1458 28 28.875 28Z" fill="#003478"/>
</svg>
