<svg width="22" height="22" viewBox="0 0 22 22" fill="none" xmlns="http://www.w3.org/2000/svg">
<path d="M11 4C11.9724 4 12.9051 4.38631 13.5927 5.07394C14.2803 5.76157 14.6666 6.69421 14.6666 7.66667C14.6666 8.63913 14.2803 9.57176 13.5927 10.2594C12.9051 10.947 11.9724 11.3333 11 11.3333C10.0275 11.3333 9.09487 10.947 8.40723 10.2594C7.7196 9.57176 7.33329 8.63913 7.33329 7.66667C7.33329 6.69421 7.7196 5.76157 8.40723 5.07394C9.09487 4.38631 10.0275 4 11 4ZM11 13.1667C15.0516 13.1667 18.3333 14.8075 18.3333 16.8333V18.6667H3.66663V16.8333C3.66663 14.8075 6.94829 13.1667 11 13.1667Z" fill="#33303E"/>
</svg>
