<svg width="15" height="12" viewBox="0 0 15 12" fill="none" xmlns="http://www.w3.org/2000/svg">
<path d="M1.94102 11.4041C1.55656 11.4041 1.22755 11.2646 0.953997 10.9857C0.679978 10.7063 0.542969 10.3706 0.542969 9.97856V1.42551C0.542969 1.03349 0.679978 0.698024 0.953997 0.419099C1.22755 0.1397 1.55656 0 1.94102 0H13.1255C13.5099 0 13.8392 0.1397 14.1132 0.419099C14.3867 0.698024 14.5235 1.03349 14.5235 1.42551V9.97856C14.5235 10.3706 14.3867 10.7063 14.1132 10.9857C13.8392 11.2646 13.5099 11.4041 13.1255 11.4041H1.94102ZM7.53325 6.41479L13.1255 2.85102V1.42551L7.53325 4.98928L1.94102 1.42551V2.85102L7.53325 6.41479Z" fill="#003478"/>
</svg>
