<svg width="35" height="35" viewBox="0 0 35 35" fill="none" xmlns="http://www.w3.org/2000/svg">
<g clip-path="url(#clip0_6801_7402)">
<path d="M11.2725 1.68172C10.7461 0.410233 9.3584 -0.266525 8.03223 0.0957796L2.0166 1.7364C0.827148 2.06453 0 3.14461 0 4.37508C0 21.2872 13.7129 35.0001 30.625 35.0001C31.8555 35.0001 32.9355 34.1729 33.2637 32.9835L34.9043 26.9678C35.2666 25.6417 34.5898 24.254 33.3184 23.7276L26.7559 20.9932C25.6416 20.5284 24.3496 20.8497 23.5908 21.7862L20.8291 25.1563C16.0166 22.88 12.1201 18.9835 9.84375 14.171L13.2139 11.4161C14.1504 10.6505 14.4717 9.36531 14.0068 8.25105L11.2725 1.68855V1.68172Z" fill="#003478"/>
</g>
<defs>
<clipPath id="clip0_6801_7402">
<rect width="35" height="35" fill="white"/>
</clipPath>
</defs>
</svg>
