<svg width="28" height="28" viewBox="0 0 28 28" fill="none" xmlns="http://www.w3.org/2000/svg">
<path d="M9.47344 10.8382L14.0001 15.3649L18.5268 10.8382C18.6348 10.7302 18.763 10.6446 18.9041 10.5861C19.0453 10.5276 19.1965 10.4976 19.3493 10.4976C19.502 10.4976 19.6533 10.5276 19.7944 10.5861C19.9355 10.6446 20.0638 10.7302 20.1718 10.8382C20.2798 10.9463 20.3655 11.0745 20.4239 11.2156C20.4824 11.3567 20.5125 11.508 20.5125 11.6607C20.5125 11.8135 20.4824 11.9648 20.4239 12.1059C20.3655 12.247 20.2798 12.3752 20.1718 12.4832L14.8168 17.8382C14.7088 17.9464 14.5806 18.0322 14.4395 18.0908C14.2984 18.1493 14.1471 18.1794 13.9943 18.1794C13.8415 18.1794 13.6902 18.1493 13.549 18.0908C13.4079 18.0322 13.2797 17.9464 13.1718 17.8382L7.81677 12.4832C7.70862 12.3753 7.62281 12.2471 7.56427 12.106C7.50572 11.9648 7.47559 11.8135 7.47559 11.6607C7.47559 11.508 7.50572 11.3567 7.56427 11.2155C7.62281 11.0744 7.70862 10.9462 7.81677 10.8382C8.27177 10.3949 9.01844 10.3832 9.47344 10.8382Z" fill="#003478"/>
</svg>
