<svg width="23" height="17" viewBox="0 0 23 17" fill="none" xmlns="http://www.w3.org/2000/svg">
<path d="M22.4676 8.02879C22.4676 7.97395 22.4676 7.91164 22.4651 7.83935C22.4626 7.63745 22.4577 7.41062 22.4528 7.16883C22.4331 6.47338 22.3987 5.78043 22.3446 5.12736C22.2709 4.22752 22.1627 3.47723 22.0151 2.9139C21.8594 2.32601 21.5543 1.78984 21.1301 1.35898C20.706 0.92812 20.1777 0.617666 19.5981 0.458645C18.9022 0.269205 17.54 0.152051 15.6221 0.0797644C14.7098 0.0448674 13.7336 0.0224336 12.7575 0.00997041C12.4157 0.00498513 12.0985 0.00249264 11.8133 0H11.0903C10.8051 0.00249264 10.4879 0.00498513 10.1461 0.00997041C9.16996 0.0224336 8.19379 0.0448674 7.28155 0.0797644C5.36362 0.154544 3.99895 0.271698 3.30554 0.458645C2.72574 0.617276 2.19725 0.927599 1.77303 1.35852C1.34882 1.78944 1.04377 2.32581 0.888468 2.9139C0.738477 3.47723 0.632745 4.22752 0.558979 5.12736C0.504884 5.78043 0.470459 6.47338 0.450788 7.16883C0.443412 7.41062 0.440953 7.63745 0.438494 7.83935C0.438494 7.91164 0.436035 7.97395 0.436035 8.02879V8.16838C0.436035 8.22322 0.436035 8.28553 0.438494 8.35782C0.440953 8.55972 0.445871 8.78655 0.450788 9.02834C0.470459 9.72379 0.504884 10.4167 0.558979 11.0698C0.632745 11.9697 0.740936 12.7199 0.888468 13.2833C1.2032 14.4773 2.12774 15.4195 3.30554 15.7385C3.99895 15.928 5.36362 16.0451 7.28155 16.1174C8.19379 16.1523 9.16996 16.1747 10.1461 16.1872C10.4879 16.1922 10.8051 16.1947 11.0903 16.1972H11.8133C12.0985 16.1947 12.4157 16.1922 12.7575 16.1872C13.7336 16.1747 14.7098 16.1523 15.6221 16.1174C17.54 16.0426 18.9047 15.9255 19.5981 15.7385C20.7759 15.4195 21.7004 14.4797 22.0151 13.2833C22.1651 12.7199 22.2709 11.9697 22.3446 11.0698C22.3987 10.4167 22.4331 9.72379 22.4528 9.02834C22.4602 8.78655 22.4626 8.55972 22.4651 8.35782C22.4651 8.28553 22.4676 8.22322 22.4676 8.16838V8.02879ZM20.6972 8.15841C20.6972 8.21075 20.6972 8.26808 20.6947 8.33539C20.6923 8.52981 20.6873 8.74418 20.6824 8.976C20.6652 9.63904 20.6308 10.3021 20.5791 10.9178C20.5128 11.7204 20.4193 12.3784 20.3038 12.8196C20.1513 13.3954 19.7038 13.8516 19.1382 14.0036C18.6219 14.1432 17.3211 14.2554 15.5532 14.3227C14.6582 14.3576 13.6943 14.38 12.7329 14.3925C12.396 14.3975 12.0837 14.4 11.8034 14.4H11.1002L10.1707 14.3925C9.2093 14.38 8.24789 14.3576 7.3504 14.3227C5.58246 14.2529 4.27926 14.1432 3.76535 14.0036C3.19981 13.8491 2.7523 13.3954 2.59985 12.8196C2.48428 12.3784 2.39084 11.7204 2.32445 10.9178C2.27282 10.3021 2.24085 9.63904 2.22118 8.976C2.2138 8.74418 2.21134 8.52732 2.20889 8.33539C2.20889 8.26808 2.20643 8.20826 2.20643 8.15841V8.03876C2.20643 7.98642 2.20643 7.92909 2.20889 7.86178C2.21134 7.66736 2.21626 7.45299 2.22118 7.22118C2.23839 6.55813 2.27282 5.89509 2.32445 5.27941C2.39084 4.47678 2.48428 3.81872 2.59985 3.37753C2.7523 2.80173 3.19981 2.34557 3.76535 2.19352C4.28172 2.05393 5.58246 1.94177 7.3504 1.87446C8.24543 1.83957 9.2093 1.81713 10.1707 1.80467C10.5076 1.79969 10.8199 1.79719 11.1002 1.79719H11.8034L12.7329 1.80467C13.6943 1.81713 14.6557 1.83957 15.5532 1.87446C17.3211 1.94426 18.6243 2.05393 19.1382 2.19352C19.7038 2.34807 20.1513 2.80173 20.3038 3.37753C20.4193 3.81872 20.5128 4.47678 20.5791 5.27941C20.6308 5.89509 20.6628 6.55813 20.6824 7.22118C20.6898 7.45299 20.6923 7.66985 20.6947 7.86178C20.6947 7.92909 20.6972 7.98891 20.6972 8.03876V8.15841ZM9.2634 11.4387L14.968 8.07366L9.2634 4.75845V11.4387Z" fill="#003478"/>
</svg>
