<svg width="52" height="52" viewBox="0 0 52 52" fill="none" xmlns="http://www.w3.org/2000/svg">
<rect width="52" height="52" rx="26" fill="white"/>
<path d="M13 18.2C11.2684 18.2 9.88 19.5884 9.88 21.32V33.8H13C13 35.0412 13.4931 36.2316 14.3707 37.1093C15.2484 37.9869 16.4388 38.48 17.68 38.48C18.9212 38.48 20.1116 37.9869 20.9893 37.1093C21.8669 36.2316 22.36 35.0412 22.36 33.8H31.72C31.72 35.0412 32.2131 36.2316 33.0907 37.1093C33.9684 37.9869 35.1588 38.48 36.4 38.48C37.6412 38.48 38.8316 37.9869 39.7093 37.1093C40.5869 36.2316 41.08 35.0412 41.08 33.8H44.2V27.56C44.2 25.8284 42.8116 24.44 41.08 24.44L36.4 18.2H13ZM31.72 20.54H35.62L38.6776 24.44H31.72V20.54ZM17.68 31.46C18.3006 31.46 18.8958 31.7065 19.3346 32.1454C19.7735 32.5842 20.02 33.1794 20.02 33.8C20.02 34.4206 19.7735 35.0158 19.3346 35.4546C18.8958 35.8935 18.3006 36.14 17.68 36.14C17.0594 36.14 16.4642 35.8935 16.0254 35.4546C15.5865 35.0158 15.34 34.4206 15.34 33.8C15.34 33.1794 15.5865 32.5842 16.0254 32.1454C16.4642 31.7065 17.0594 31.46 17.68 31.46ZM36.4 31.46C37.0206 31.46 37.6158 31.7065 38.0546 32.1454C38.4935 32.5842 38.74 33.1794 38.74 33.8C38.74 34.4206 38.4935 35.0158 38.0546 35.4546C37.6158 35.8935 37.0206 36.14 36.4 36.14C35.7794 36.14 35.1842 35.8935 34.7454 35.4546C34.3065 35.0158 34.06 34.4206 34.06 33.8C34.06 33.1794 34.3065 32.5842 34.7454 32.1454C35.1842 31.7065 35.7794 31.46 36.4 31.46Z" fill="#003478"/>
</svg>
