<svg width="43" height="39" viewBox="0 0 43 39" fill="none" xmlns="http://www.w3.org/2000/svg">
<path d="M24.7538 0.875C25.7917 0.875 26.7885 1.28625 27.5229 2.02258L36.9777 11.4774C37.7123 12.2118 38.1251 13.2078 38.1253 14.2465V28.2917H42.042V32.2083H26.1286C25.693 33.8891 24.7116 35.3775 23.3385 36.4401C21.9653 37.5028 20.2782 38.0793 18.542 38.0793C16.8057 38.0793 15.1186 37.5028 13.7455 36.4401C12.3724 35.3775 11.391 33.8891 10.9554 32.2083H2.87533C2.35594 32.2083 1.85783 32.002 1.49057 31.6348C1.12332 31.2675 0.916992 30.7694 0.916992 30.25V4.79167C0.916992 3.7529 1.32964 2.75668 2.06416 2.02216C2.79867 1.28765 3.79489 0.875 4.83366 0.875H24.7538ZM18.542 26.3333C18.0204 26.3215 17.5017 26.4141 17.0164 26.6055C16.5311 26.7969 16.0889 27.0834 15.7158 27.448C15.3427 27.8127 15.0462 28.2482 14.8437 28.7291C14.6413 29.2099 14.5369 29.7263 14.5368 30.248C14.5366 30.7697 14.6407 31.2862 14.843 31.7671C15.0452 32.2481 15.3415 32.6838 15.7144 33.0486C16.0873 33.4135 16.5293 33.7001 17.0146 33.8918C17.4998 34.0835 18.0184 34.1762 18.54 34.1647C19.5634 34.1421 20.5372 33.7197 21.2531 32.9881C21.9689 32.2564 22.3699 31.2736 22.3701 30.25C22.3704 29.2264 21.9699 28.2434 21.2544 27.5113C20.5389 26.7793 19.5653 26.3565 18.542 26.3333V26.3333ZM24.417 8.70833H8.75033V20.4583H24.417V8.70833ZM20.5003 12.625V16.5417H12.667V12.625H20.5003Z" fill="#003478"/>
</svg>
