<svg width="38" height="44" viewBox="0 0 38 44" fill="none" xmlns="http://www.w3.org/2000/svg">
<path d="M19 21.5714C21.7279 21.5714 24.3442 20.4878 26.2731 18.5588C28.202 16.6299 29.2857 14.0137 29.2857 11.2857C29.2857 8.55777 28.202 5.94156 26.2731 4.01262C24.3442 2.08367 21.7279 1 19 1C16.2721 1 13.6558 2.08367 11.7269 4.01262C9.79796 5.94156 8.71429 8.55777 8.71429 11.2857C8.71429 14.0137 9.79796 16.6299 11.7269 18.5588C13.6558 20.4878 16.2721 21.5714 19 21.5714ZM15.3277 25.4286C7.4125 25.4286 1 31.8411 1 39.7563C1 41.0741 2.06875 42.1429 3.38661 42.1429H34.6134C35.9312 42.1429 37 41.0741 37 39.7563C37 31.8411 30.5875 25.4286 22.6723 25.4286H15.3277Z" fill="#003478"/>
</svg>
