<svg width="42" height="42" viewBox="0 0 42 42" fill="none" xmlns="http://www.w3.org/2000/svg">
<path d="M14.6388 17.5L19.6 14H29.75V17.5H20.748L15.75 21H3.50002V17.5H14.6388ZM16.2418 26.355L21.3605 24.4912L22.5575 27.7812L17.4388 29.6432C17.6797 31.5643 17.2046 33.5067 16.1041 35.0996C15.0036 36.6925 13.3549 37.8242 11.4729 38.2785C9.59089 38.7328 7.60747 38.4779 5.90149 37.5625C4.19551 36.6471 2.88654 35.1353 2.22459 33.3159C1.56264 31.4965 1.59411 29.497 2.31298 27.6993C3.03186 25.9017 4.38777 24.4318 6.12171 23.5705C7.85565 22.7093 9.84611 22.5169 11.7129 23.0302C13.5797 23.5435 15.192 24.7265 16.2418 26.3533V26.355ZM9.62502 35C10.7853 35 11.8981 34.5391 12.7186 33.7186C13.5391 32.8981 14 31.7853 14 30.625C14 29.4647 13.5391 28.3519 12.7186 27.5314C11.8981 26.7109 10.7853 26.25 9.62502 26.25C8.4647 26.25 7.3519 26.7109 6.53143 27.5314C5.71095 28.3519 5.25002 29.4647 5.25002 30.625C5.25002 31.7853 5.71095 32.8981 6.53143 33.7186C7.3519 34.5391 8.4647 35 9.62502 35ZM32.375 38.5C31.3409 38.5 30.3168 38.2963 29.3614 37.9006C28.4059 37.5048 27.5378 36.9247 26.8066 36.1935C26.0753 35.4622 25.4952 34.5941 25.0995 33.6386C24.7037 32.6832 24.5 31.6592 24.5 30.625C24.5 29.5908 24.7037 28.5668 25.0995 27.6114C25.4952 26.6559 26.0753 25.7878 26.8066 25.0565C27.5378 24.3253 28.4059 23.7452 29.3614 23.3494C30.3168 22.9537 31.3409 22.75 32.375 22.75C34.4636 22.75 36.4666 23.5797 37.9435 25.0565C39.4203 26.5334 40.25 28.5364 40.25 30.625C40.25 32.7136 39.4203 34.7166 37.9435 36.1935C36.4666 37.6703 34.4636 38.5 32.375 38.5ZM32.375 35C33.5353 35 34.6481 34.5391 35.4686 33.7186C36.2891 32.8981 36.75 31.7853 36.75 30.625C36.75 29.4647 36.2891 28.3519 35.4686 27.5314C34.6481 26.7109 33.5353 26.25 32.375 26.25C31.2147 26.25 30.1019 26.7109 29.2814 27.5314C28.461 28.3519 28 29.4647 28 30.625C28 31.7853 28.461 32.8981 29.2814 33.7186C30.1019 34.5391 31.2147 35 32.375 35ZM7.00002 19.25H17.5L22.05 16.2173L22.54 14.3867L25.921 15.2933L22.5575 27.7725L19.369 26.2185L19.5755 25.4485L15.75 28L14 24.5H7.00002V19.25ZM28.161 10.5H35V15.75H30.072L33.432 24.983L30.142 26.18L26.348 15.75H26.25V15.484L23.8 8.75H19.25V5.25H26.25L28.161 10.5Z" fill="#003478"/>
</svg>
