<svg width="14" height="12" viewBox="0 0 14 12" fill="none" xmlns="http://www.w3.org/2000/svg">
<path d="M1.4 11.2652C1.015 11.2652 0.685533 11.1275 0.4116 10.8519C0.1372 10.576 0 10.2443 0 9.85709V1.40816C0 1.02091 0.1372 0.689527 0.4116 0.413998C0.685533 0.137999 1.015 0 1.4 0H12.6C12.985 0 13.3147 0.137999 13.5891 0.413998C13.863 0.689527 14 1.02091 14 1.40816V9.85709C14 10.2443 13.863 10.576 13.5891 10.8519C13.3147 11.1275 12.985 11.2652 12.6 11.2652H1.4ZM7 6.3367L12.6 2.81631V1.40816L7 4.92854L1.4 1.40816V2.81631L7 6.3367Z" fill="white"/>
</svg>
