<svg width="35" height="35" viewBox="0 0 35 35" fill="none" xmlns="http://www.w3.org/2000/svg">
<g clip-path="url(#clip0_6804_7442)">
<path d="M24.7935 1.31934L21.4849 4.62793L30.3716 13.5146L33.6802 10.2061C35.3892 8.49707 35.3892 5.72852 33.6802 4.01953L30.9868 1.31934C29.2778 -0.389648 26.5093 -0.389648 24.8003 1.31934H24.7935ZM19.94 6.17285L4.00539 22.1143C3.29445 22.8252 2.77492 23.707 2.48781 24.6709L0.0678856 32.8945C-0.103013 33.4756 0.0542137 34.0977 0.478042 34.5215C0.90187 34.9453 1.52394 35.1025 2.09816 34.9385L10.3218 32.5186C11.2857 32.2314 12.1675 31.7119 12.8784 31.001L28.8267 15.0596L19.94 6.17285Z" fill="#003478"/>
</g>
<defs>
<clipPath id="clip0_6804_7442">
<rect width="35" height="35" fill="white"/>
</clipPath>
</defs>
</svg>
