<svg width="20" height="20" viewBox="0 0 20 20" fill="none" xmlns="http://www.w3.org/2000/svg">
<path d="M12.5583 9.70833L11.8083 10.475C11.2083 11.075 10.8333 11.5833 10.8333 12.8333H9.16663V12.4167C9.16663 11.4917 9.54163 10.6583 10.1416 10.0583L11.175 9.00833C11.4833 8.70833 11.6666 8.29167 11.6666 7.83333C11.6666 7.39131 11.491 6.96738 11.1785 6.65482C10.8659 6.34226 10.442 6.16667 9.99996 6.16667C9.55793 6.16667 9.13401 6.34226 8.82145 6.65482C8.50889 6.96738 8.33329 7.39131 8.33329 7.83333H6.66663C6.66663 6.94928 7.01782 6.10143 7.64294 5.47631C8.26806 4.85119 9.1159 4.5 9.99996 4.5C10.884 4.5 11.7319 4.85119 12.357 5.47631C12.9821 6.10143 13.3333 6.94928 13.3333 7.83333C13.3321 8.53603 13.0536 9.20986 12.5583 9.70833ZM10.8333 16.1667H9.16663V14.5H10.8333M9.99996 2C8.90561 2 7.82198 2.21555 6.81093 2.63434C5.79988 3.05313 4.88122 3.66696 4.1074 4.44078C2.5446 6.00358 1.66663 8.1232 1.66663 10.3333C1.66663 12.5435 2.5446 14.6631 4.1074 16.2259C4.88122 16.9997 5.79988 17.6135 6.81093 18.0323C7.82198 18.4511 8.90561 18.6667 9.99996 18.6667C12.2101 18.6667 14.3297 17.7887 15.8925 16.2259C17.4553 14.6631 18.3333 12.5435 18.3333 10.3333C18.3333 5.725 14.5833 2 9.99996 2Z" fill="#33303E"/>
</svg>
