<svg width="40" height="36" viewBox="0 0 40 36" fill="none" xmlns="http://www.w3.org/2000/svg">
<g clip-path="url(#clip0_6905_1585)">
<path d="M0 4.44444C0 1.99306 1.99306 0 4.44444 0H15.5556V8.88889C15.5556 10.1181 16.5486 11.1111 17.7778 11.1111H26.6667V13.7917C21.5347 15.2431 17.7778 19.9583 17.7778 25.5556C17.7778 29.6597 19.7986 33.2847 22.8958 35.5069C22.6736 35.5417 22.4514 35.5556 22.2222 35.5556H4.44444C1.99306 35.5556 0 33.5625 0 31.1111V4.44444ZM26.6667 8.88889H17.7778V0L26.6667 8.88889ZM30 15.5556C32.6522 15.5556 35.1957 16.6091 37.0711 18.4845C38.9464 20.3599 40 22.9034 40 25.5556C40 28.2077 38.9464 30.7513 37.0711 32.6266C35.1957 34.502 32.6522 35.5556 30 35.5556C27.3478 35.5556 24.8043 34.502 22.9289 32.6266C21.0536 30.7513 20 28.2077 20 25.5556C20 22.9034 21.0536 20.3599 22.9289 18.4845C24.8043 16.6091 27.3478 15.5556 30 15.5556ZM30 32.2222C30.442 32.2222 30.866 32.0466 31.1785 31.7341C31.4911 31.4215 31.6667 30.9976 31.6667 30.5556C31.6667 30.1135 31.4911 29.6896 31.1785 29.377C30.866 29.0645 30.442 28.8889 30 28.8889C29.558 28.8889 29.1341 29.0645 28.8215 29.377C28.5089 29.6896 28.3333 30.1135 28.3333 30.5556C28.3333 30.9976 28.5089 31.4215 28.8215 31.7341C29.1341 32.0466 29.558 32.2222 30 32.2222ZM30 18.8889C29.3889 18.8889 28.8889 19.3889 28.8889 20V25.5556C28.8889 26.1667 29.3889 26.6667 30 26.6667C30.6111 26.6667 31.1111 26.1667 31.1111 25.5556V20C31.1111 19.3889 30.6111 18.8889 30 18.8889Z" fill="#003478"/>
</g>
<defs>
<clipPath id="clip0_6905_1585">
<rect width="40" height="35.5556" fill="white"/>
</clipPath>
</defs>
</svg>
