<svg width="70" height="94" viewBox="0 0 70 94" fill="none" xmlns="http://www.w3.org/2000/svg">
<g clip-path="url(#clip0_6737_2417)">
<path d="M11.6667 0C5.23177 0 0 5.23177 0 11.6667V81.6667C0 88.1016 5.23177 93.3333 11.6667 93.3333H58.3333C64.7682 93.3333 70 88.1016 70 81.6667V29.1667H46.6667C43.4401 29.1667 40.8333 26.5599 40.8333 23.3333V0H11.6667ZM46.6667 0V23.3333H70L46.6667 0ZM14.5833 11.6667H26.25C27.8542 11.6667 29.1667 12.9792 29.1667 14.5833C29.1667 16.1875 27.8542 17.5 26.25 17.5H14.5833C12.9792 17.5 11.6667 16.1875 11.6667 14.5833C11.6667 12.9792 12.9792 11.6667 14.5833 11.6667ZM14.5833 23.3333H26.25C27.8542 23.3333 29.1667 24.6458 29.1667 26.25C29.1667 27.8542 27.8542 29.1667 26.25 29.1667H14.5833C12.9792 29.1667 11.6667 27.8542 11.6667 26.25C11.6667 24.6458 12.9792 23.3333 14.5833 23.3333ZM17.5 40.8333H52.5C55.7266 40.8333 58.3333 43.4401 58.3333 46.6667V58.3333C58.3333 61.5599 55.7266 64.1667 52.5 64.1667H17.5C14.2734 64.1667 11.6667 61.5599 11.6667 58.3333V46.6667C11.6667 43.4401 14.2734 40.8333 17.5 40.8333ZM17.5 46.6667V58.3333H52.5V46.6667H17.5ZM43.75 75.8333H55.4167C57.0208 75.8333 58.3333 77.1458 58.3333 78.75C58.3333 80.3542 57.0208 81.6667 55.4167 81.6667H43.75C42.1458 81.6667 40.8333 80.3542 40.8333 78.75C40.8333 77.1458 42.1458 75.8333 43.75 75.8333Z" fill="#003478"/>
</g>
<defs>
<clipPath id="clip0_6737_2417">
<rect width="70" height="93.3333" fill="white"/>
</clipPath>
</defs>
</svg>
