<svg width="40" height="40" viewBox="0 0 40 40" fill="none" xmlns="http://www.w3.org/2000/svg">
<path d="M5.75 34C5.47222 34 5.18056 33.9933 4.875 33.98C4.56944 33.9656 4.27778 33.9444 4 33.9167V24.1667L12.3333 22.5L17.1667 27.3333C19.2778 26.0556 21.2156 24.5417 22.98 22.7917C24.7433 21.0417 26.2083 19.1667 27.375 17.1667L22.625 12.375L24.1667 4H33.9167C33.9722 4.27778 34 4.56944 34 4.875V5.75C34 9.33333 33.2011 12.8261 31.6033 16.2283C30.0067 19.6317 27.8956 22.6528 25.27 25.2917C22.6456 27.9306 19.6322 30.0417 16.23 31.625C12.8267 33.2083 9.33333 34 5.75 34Z" fill="#003478"/>
</svg>
