<svg width="43" height="38" viewBox="0 0 43 38" fill="none" xmlns="http://www.w3.org/2000/svg">
<path d="M14.3952 14L19.9364 10H31.2727V14H21.2186L15.6364 18H1.95457V14H14.3952ZM16.1856 24.12L21.9026 21.99L23.2396 25.75L17.5225 27.878C17.7916 30.0734 17.261 32.2934 16.0319 34.1139C14.8027 35.9343 12.9613 37.2276 10.8593 37.7469C8.75735 38.2661 6.54211 37.9747 4.63673 36.9285C2.73135 35.8823 1.26938 34.1546 0.530058 32.0753C-0.209262 29.996 -0.174114 27.7108 0.628788 25.6564C1.43169 23.6019 2.94608 21.9221 4.88269 20.9378C6.8193 19.9534 9.04241 19.7336 11.1274 20.3202C13.2124 20.9069 15.0131 22.2589 16.1856 24.118V24.12ZM8.79547 34C10.0914 34 11.3343 33.4732 12.2507 32.5355C13.167 31.5979 13.6818 30.3261 13.6818 29C13.6818 27.6739 13.167 26.4021 12.2507 25.4645C11.3343 24.5268 10.0914 24 8.79547 24C7.49953 24 6.25666 24.5268 5.34029 25.4645C4.42392 26.4021 3.90911 27.6739 3.90911 29C3.90911 30.3261 4.42392 31.5979 5.34029 32.5355C6.25666 33.4732 7.49953 34 8.79547 34V34ZM34.2046 38C33.0495 38 31.9058 37.7672 30.8387 37.3149C29.7716 36.8626 28.802 36.1997 27.9852 35.364C27.1685 34.5282 26.5206 33.5361 26.0786 32.4442C25.6366 31.3522 25.4091 30.1819 25.4091 29C25.4091 27.8181 25.6366 26.6478 26.0786 25.5558C26.5206 24.4639 27.1685 23.4718 27.9852 22.636C28.802 21.8003 29.7716 21.1374 30.8387 20.6851C31.9058 20.2328 33.0495 20 34.2046 20C36.5372 20 38.7744 20.9482 40.4239 22.636C42.0733 24.3239 43 26.6131 43 29C43 31.3869 42.0733 33.6761 40.4239 35.364C38.7744 37.0518 36.5372 38 34.2046 38V38ZM34.2046 34C35.5005 34 36.7434 33.4732 37.6597 32.5355C38.5761 31.5979 39.0909 30.3261 39.0909 29C39.0909 27.6739 38.5761 26.4021 37.6597 25.4645C36.7434 24.5268 35.5005 24 34.2046 24C32.9086 24 31.6657 24.5268 30.7494 25.4645C29.833 26.4021 29.3182 27.6739 29.3182 29C29.3182 30.3261 29.833 31.5979 30.7494 32.5355C31.6657 33.4732 32.9086 34 34.2046 34ZM5.86365 16H17.5909L22.6727 12.534L23.22 10.442L26.9962 11.478L23.2396 25.74L19.6784 23.964L19.909 23.084L15.6364 26L13.6818 22H5.86365V16ZM29.498 6H37.1364V12H31.6324L35.3851 22.552L31.7106 23.92L27.4731 12H27.3636V11.696L24.6273 4H19.5455V0H27.3636L29.498 6Z" fill="#003478"/>
</svg>
