<svg width="38" height="44" viewBox="0 0 38 44" fill="none" xmlns="http://www.w3.org/2000/svg">
<g clip-path="url(#clip0_6905_1593)">
<path d="M35.9562 21.6973L34.862 35.0397C34.5821 38.492 29.4419 38.017 29.7218 34.6241L30.5701 24.2335L27.0839 24.4286C27.9406 26.1844 28.4241 28.1522 28.4241 30.2388C28.4241 33.7335 27.0585 36.9143 24.8361 39.2723L21.5027 35.9388C26.4138 30.5357 22.6138 21.7567 15.2259 21.7567C13.029 21.7567 11.0272 22.5964 9.52587 23.9621L6.19238 20.6286C8.05845 18.8728 10.4419 17.6513 13.0968 17.2188L19.4839 9.94955L15.8705 7.84598L11.4937 11.7478C8.94908 14.021 5.50533 10.1786 8.05845 7.89688L13.8263 2.74821C14.6576 2.00179 15.8705 1.88304 16.8375 2.44286C16.8375 2.44286 28.6531 9.30491 28.6701 9.32188C30.0442 10.1786 30.4259 12.3754 29.1875 13.7835L24.2339 19.4241L33.2335 18.9237C34.8027 18.8304 36.0835 20.1451 35.9562 21.6973ZM30.4513 8.63482C32.8348 8.63482 34.7687 6.70089 34.7687 4.31741C34.7687 1.93393 32.8348 0 30.4513 0C28.0678 0 26.1339 1.93393 26.1339 4.31741C26.1339 6.70089 28.0678 8.63482 30.4513 8.63482ZM15.2343 38.721C8.39774 38.721 4.4281 31.0362 8.21962 25.4804L4.8522 22.1129C3.08792 24.3438 2.03613 27.1683 2.03613 30.2304C2.03613 41.3165 14.8187 47.3134 23.3602 40.621L19.9928 37.2536C18.6357 38.1781 16.9986 38.721 15.2343 38.721Z" fill="#003478"/>
</g>
<defs>
<clipPath id="clip0_6905_1593">
<rect width="38" height="43.4286" fill="white"/>
</clipPath>
</defs>
</svg>
