<svg width="51" height="40" viewBox="0 0 51 40" fill="none" xmlns="http://www.w3.org/2000/svg">
<g clip-path="url(#clip0_6970_1681)">
<path d="M16.7499 27.5C25.7264 27.5 32.9999 21.3437 32.9999 13.75C32.9999 6.15625 25.7264 0 16.7499 0C7.77332 0 0.499878 6.15625 0.499878 13.75C0.499878 16.7656 1.64832 19.5547 3.59363 21.8281C3.32019 22.5625 2.91394 23.2109 2.48425 23.7578C2.10925 24.2422 1.72644 24.6172 1.44519 24.875C1.30457 25 1.18738 25.1016 1.10925 25.1641C1.07019 25.1953 1.03894 25.2187 1.02332 25.2266L1.00769 25.2422C0.578003 25.5625 0.390503 26.125 0.562378 26.6328C0.734253 27.1406 1.21082 27.5 1.74988 27.5C3.453 27.5 5.17175 27.0625 6.60144 26.5234C7.32019 26.25 7.99207 25.9453 8.578 25.6328C10.9764 26.8203 13.7655 27.5 16.7499 27.5ZM35.4999 13.75C35.4999 22.5234 27.7577 29.1328 18.5858 29.9219C20.4843 35.7344 26.7811 40 34.2499 40C37.2343 40 40.0233 39.3203 42.4296 38.1328C43.0155 38.4453 43.6796 38.75 44.3983 39.0234C45.828 39.5625 47.5468 40 49.2499 40C49.7889 40 50.2733 39.6484 50.4374 39.1328C50.6014 38.6172 50.4218 38.0547 49.9843 37.7344L49.9686 37.7187C49.953 37.7031 49.9218 37.6875 49.8827 37.6562C49.8046 37.5937 49.6874 37.5 49.5468 37.3672C49.2655 37.1094 48.8827 36.7344 48.5077 36.25C48.078 35.7031 47.6718 35.0469 47.3983 34.3203C49.3436 32.0547 50.4921 29.2656 50.4921 26.2422C50.4921 18.9922 43.8593 13.0469 35.4452 12.5312C35.4764 12.9297 35.4921 13.3359 35.4921 13.7422L35.4999 13.75Z" fill="#5F5C6B"/>
</g>
<defs>
<clipPath id="clip0_6970_1681">
<rect width="50" height="40" fill="white" transform="translate(0.5)"/>
</clipPath>
</defs>
</svg>
