<svg width="17" height="17" viewBox="0 0 17 17" fill="none" xmlns="http://www.w3.org/2000/svg">
<path d="M8.36731 0C6.19556 0 5.9249 0.0106307 5.07497 0.0470789C4.22155 0.0896018 3.64428 0.223751 3.13493 0.424216C2.60183 0.628236 2.11905 0.947661 1.72022 1.36023C1.31211 1.76358 0.996834 2.25327 0.796888 2.79436C0.599139 3.31071 0.466806 3.89591 0.424859 4.76105C0.386408 5.62315 0.378418 5.89701 0.378418 8.09859C0.378418 10.3002 0.388905 10.5745 0.424859 11.4361C0.466806 12.2987 0.599139 12.8865 0.796888 13.4028C0.998144 13.9432 1.31324 14.4326 1.72022 14.8369C2.11811 15.2507 2.60117 15.5703 3.13493 15.773C3.64428 15.9709 4.22405 16.1076 5.07497 16.1501C5.9254 16.1891 6.19556 16.1972 8.36731 16.1972C10.5391 16.1972 10.8097 16.1865 11.6596 16.1501C12.5106 16.1076 13.0903 15.9704 13.5997 15.773C14.1328 15.5689 14.6156 15.2495 15.0144 14.8369C15.423 14.434 15.7384 13.9442 15.9377 13.4028C16.133 12.8865 16.2678 12.2987 16.3098 11.4361C16.3482 10.574 16.3562 10.3002 16.3562 8.09859C16.3562 5.89701 16.3457 5.62264 16.3098 4.76105C16.2678 3.89844 16.1325 3.30767 15.9377 2.79436C15.7365 2.25395 15.4214 1.76453 15.0144 1.36023C14.6169 0.945977 14.1337 0.626291 13.5997 0.424216C13.0903 0.223751 12.5106 0.0896018 11.6596 0.0470789C10.8092 0.0080996 10.5391 0 8.36731 0ZM8.36731 1.45793C10.5001 1.45793 10.7548 1.46856 11.5977 1.50501C12.3752 1.54196 12.7987 1.67358 13.0798 1.78495C13.4274 1.91501 13.742 2.12202 14.0007 2.3909C14.2655 2.65202 14.4689 2.9702 14.5959 3.32185C14.7058 3.60685 14.8356 4.03613 14.8721 4.82432C14.908 5.67883 14.9185 5.93751 14.9185 8.09909C14.9185 10.2607 14.908 10.5194 14.8691 11.3739C14.8271 12.1621 14.6973 12.5913 14.5879 12.8763C14.4366 13.2565 14.2678 13.5223 13.9892 13.8098C13.7296 14.077 13.4153 14.283 13.0684 14.4132C12.7907 14.5246 12.3613 14.6562 11.5807 14.6932C10.7333 14.7296 10.4836 14.7403 8.34533 14.7403C6.20704 14.7403 5.95786 14.7296 5.10943 14.6901C4.33191 14.6476 3.90296 14.516 3.62181 14.4051C3.24229 14.2517 2.98212 14.0806 2.70348 13.7982C2.42233 13.5132 2.24356 13.2418 2.10573 12.8647C1.99387 12.5832 1.86604 12.1479 1.82459 11.3567C1.79612 10.5077 1.78264 10.2445 1.78264 8.08694C1.78264 5.93043 1.79612 5.66668 1.82459 4.80711C1.86604 4.01588 1.99387 3.58154 2.10573 3.29907C2.24356 2.91383 2.42283 2.65059 2.70348 2.36559C2.98162 2.08362 3.24229 1.90138 3.62181 1.75863C3.90296 1.64776 4.32143 1.51614 5.10194 1.47666C5.94937 1.44578 6.19905 1.43464 8.33435 1.43464L8.36731 1.45793ZM8.36731 3.94197C7.82866 3.94177 7.29525 4.04918 6.79757 4.25805C6.29989 4.46692 5.84769 4.77316 5.4668 5.15927C5.08592 5.54538 4.78383 6.00379 4.57779 6.50831C4.37175 7.01283 4.2658 7.55356 4.266 8.0996C4.2658 8.64564 4.37175 9.18637 4.57779 9.69089C4.78383 10.1954 5.08592 10.6538 5.4668 11.0399C5.84769 11.426 6.29989 11.7323 6.79757 11.9411C7.29525 12.15 7.82866 12.2574 8.36731 12.2572C8.90595 12.2574 9.43936 12.15 9.93704 11.9411C10.4347 11.7323 10.8869 11.426 11.2678 11.0399C11.6487 10.6538 11.9508 10.1954 12.1568 9.69089C12.3629 9.18637 12.4688 8.64564 12.4686 8.0996C12.4688 7.55356 12.3629 7.01283 12.1568 6.50831C11.9508 6.00379 11.6487 5.54538 11.2678 5.15927C10.8869 4.77316 10.4347 4.46692 9.93704 4.25805C9.43936 4.04918 8.90595 3.94177 8.36731 3.94197ZM8.36731 10.7993C6.89517 10.7993 5.70418 9.59195 5.70418 8.0996C5.70418 6.60725 6.89517 5.3999 8.36731 5.3999C9.83944 5.3999 11.0304 6.60725 11.0304 8.0996C11.0304 9.59195 9.83944 10.7993 8.36731 10.7993ZM13.5927 3.77593C13.5924 4.03394 13.4911 4.28128 13.3111 4.46362C13.131 4.64597 12.8869 4.74839 12.6324 4.74839C12.5066 4.74839 12.382 4.72326 12.2657 4.67444C12.1494 4.62562 12.0438 4.55407 11.9548 4.46386C11.8658 4.37365 11.7952 4.26656 11.7471 4.1487C11.6989 4.03084 11.6741 3.90452 11.6741 3.77694C11.6741 3.64937 11.6989 3.52305 11.7471 3.40519C11.7952 3.28733 11.8658 3.18024 11.9548 3.09003C12.0438 2.99982 12.1494 2.92827 12.2657 2.87945C12.382 2.83063 12.5066 2.8055 12.6324 2.8055C13.1602 2.8055 13.5927 3.24085 13.5927 3.77593Z" fill="#003478"/>
</svg>
