<svg width="38" height="38" viewBox="0 0 38 38" fill="none" xmlns="http://www.w3.org/2000/svg">
<g clip-path="url(#clip0_6905_1589)">
<path d="M19 38C24.0391 38 28.8718 35.9982 32.435 32.435C35.9982 28.8718 38 24.0391 38 19C38 13.9609 35.9982 9.12816 32.435 5.56497C28.8718 2.00178 24.0391 0 19 0C13.9609 0 9.12816 2.00178 5.56497 5.56497C2.00178 9.12816 0 13.9609 0 19C0 24.0391 2.00178 28.8718 5.56497 32.435C9.12816 35.9982 13.9609 38 19 38ZM19 9.5C19.9871 9.5 20.7812 10.2941 20.7812 11.2812V19.5938C20.7812 20.5809 19.9871 21.375 19 21.375C18.0129 21.375 17.2188 20.5809 17.2188 19.5938V11.2812C17.2188 10.2941 18.0129 9.5 19 9.5ZM16.625 26.125C16.625 25.4951 16.8752 24.891 17.3206 24.4456C17.766 24.0002 18.3701 23.75 19 23.75C19.6299 23.75 20.234 24.0002 20.6794 24.4456C21.1248 24.891 21.375 25.4951 21.375 26.125C21.375 26.7549 21.1248 27.359 20.6794 27.8044C20.234 28.2498 19.6299 28.5 19 28.5C18.3701 28.5 17.766 28.2498 17.3206 27.8044C16.8752 27.359 16.625 26.7549 16.625 26.125Z" fill="#003478"/>
</g>
<defs>
<clipPath id="clip0_6905_1589">
<rect width="38" height="38" fill="white"/>
</clipPath>
</defs>
</svg>
