<svg width="45" height="33" viewBox="0 0 45 33" fill="none" xmlns="http://www.w3.org/2000/svg">
<path d="M34.7503 29.7708C33.9381 29.7708 33.1591 29.4481 32.5848 28.8738C32.0105 28.2995 31.6878 27.5205 31.6878 26.7083C31.6878 25.8961 32.0105 25.1171 32.5848 24.5428C33.1591 23.9684 33.9381 23.6458 34.7503 23.6458C35.5625 23.6458 36.3415 23.9684 36.9158 24.5428C37.4902 25.1171 37.8128 25.8961 37.8128 26.7083C37.8128 27.5205 37.4902 28.2995 36.9158 28.8738C36.3415 29.4481 35.5625 29.7708 34.7503 29.7708ZM37.8128 11.3958L41.8145 16.5H32.7087V11.3958M10.2503 29.7708C9.4381 29.7708 8.65914 29.4481 8.08481 28.8738C7.51048 28.2995 7.18782 27.5205 7.18782 26.7083C7.18782 25.8961 7.51048 25.1171 8.08481 24.5428C8.65914 23.9684 9.4381 23.6458 10.2503 23.6458C11.0626 23.6458 11.8415 23.9684 12.4158 24.5428C12.9902 25.1171 13.3128 25.8961 13.3128 26.7083C13.3128 27.5205 12.9902 28.2995 12.4158 28.8738C11.8415 29.4481 11.0626 29.7708 10.2503 29.7708ZM38.8337 8.33329H32.7087V0.166626H4.12533C1.85908 0.166626 0.0419922 1.98371 0.0419922 4.24996V26.7083H4.12533C4.12533 28.3327 4.77064 29.8907 5.9193 31.0393C7.06796 32.188 8.62587 32.8333 10.2503 32.8333C11.8748 32.8333 13.4327 32.188 14.5814 31.0393C15.73 29.8907 16.3753 28.3327 16.3753 26.7083H28.6253C28.6253 28.3327 29.2706 29.8907 30.4193 31.0393C31.568 32.188 33.1259 32.8333 34.7503 32.8333C36.3748 32.8333 37.9327 32.188 39.0814 31.0393C40.23 29.8907 40.8753 28.3327 40.8753 26.7083H44.9587V16.5L38.8337 8.33329Z" fill="#003478"/>
</svg>
