<svg width="18" height="19" viewBox="0 0 18 19" fill="none" xmlns="http://www.w3.org/2000/svg">
<path opacity="0.5" fill-rule="evenodd" clip-rule="evenodd" d="M8.99988 16.2527C12.7294 16.2527 15.7527 13.2294 15.7527 9.49988C15.7527 5.77041 12.7294 2.74707 8.99988 2.74707C5.27041 2.74707 2.24707 5.77041 2.24707 9.49988C2.24707 13.2294 5.27041 16.2527 8.99988 16.2527Z" stroke="#003478" stroke-width="1.25"/>
<path opacity="0.5" d="M12.0013 12.5011C11.914 12.2816 11.7787 12.0844 11.6051 11.9242V11.9242C11.3127 11.6524 10.9284 11.5012 10.5292 11.501H7.47164C7.07222 11.5012 6.68765 11.6524 6.39494 11.9242V11.9242C6.2218 12.0848 6.08649 12.2819 5.99878 12.5011" stroke="#003478" stroke-width="1.25"/>
<path opacity="0.5" fill-rule="evenodd" clip-rule="evenodd" d="M8.99997 9.87518C9.93234 9.87518 10.6882 9.11935 10.6882 8.18698C10.6882 7.25461 9.93234 6.49878 8.99997 6.49878C8.0676 6.49878 7.31177 7.25461 7.31177 8.18698C7.31177 9.11935 8.0676 9.87518 8.99997 9.87518Z" stroke="#003478" stroke-width="1.25"/>
</svg>
