<svg width="37" height="37" viewBox="0 0 37 37" fill="none" xmlns="http://www.w3.org/2000/svg">
<path d="M6.9375 0C4.38652 0 2.3125 2.07402 2.3125 4.625V32.375C2.3125 34.926 4.38652 37 6.9375 37H27.75C30.301 37 32.375 34.926 32.375 32.375V4.625C32.375 2.07402 30.301 0 27.75 0H6.9375ZM15.0312 20.8125H19.6562C22.8504 20.8125 25.4375 23.3996 25.4375 26.5938C25.4375 27.2297 24.9172 27.75 24.2812 27.75H10.4062C9.77031 27.75 9.25 27.2297 9.25 26.5938C9.25 23.3996 11.8371 20.8125 15.0312 20.8125ZM12.7188 13.875C12.7188 12.6484 13.206 11.472 14.0734 10.6046C14.9407 9.73728 16.1171 9.25 17.3438 9.25C18.5704 9.25 19.7468 9.73728 20.6141 10.6046C21.4815 11.472 21.9688 12.6484 21.9688 13.875C21.9688 15.1016 21.4815 16.278 20.6141 17.1454C19.7468 18.0127 18.5704 18.5 17.3438 18.5C16.1171 18.5 14.9407 18.0127 14.0734 17.1454C13.206 16.278 12.7188 15.1016 12.7188 13.875ZM37 5.78125C37 5.14531 36.4797 4.625 35.8438 4.625C35.2078 4.625 34.6875 5.14531 34.6875 5.78125V10.4062C34.6875 11.0422 35.2078 11.5625 35.8438 11.5625C36.4797 11.5625 37 11.0422 37 10.4062V5.78125ZM35.8438 13.875C35.2078 13.875 34.6875 14.3953 34.6875 15.0312V19.6562C34.6875 20.2922 35.2078 20.8125 35.8438 20.8125C36.4797 20.8125 37 20.2922 37 19.6562V15.0312C37 14.3953 36.4797 13.875 35.8438 13.875ZM37 24.2812C37 23.6453 36.4797 23.125 35.8438 23.125C35.2078 23.125 34.6875 23.6453 34.6875 24.2812V28.9062C34.6875 29.5422 35.2078 30.0625 35.8438 30.0625C36.4797 30.0625 37 29.5422 37 28.9062V24.2812Z" fill="#003478"/>
</svg>
