<svg width="38" height="42" viewBox="0 0 38 42" fill="none" xmlns="http://www.w3.org/2000/svg">
<path d="M6.16699 32C4.63921 32 3.3406 31.4653 2.27116 30.3959C1.20171 29.3264 0.666992 28.0278 0.666992 26.5C0.666992 24.9723 1.20171 23.6737 2.27116 22.6042C3.3406 21.5348 4.63921 21 6.16699 21C7.35866 21 8.42077 21.3435 9.35332 22.0304C10.2847 22.7185 10.9337 23.5973 11.3003 24.6667H21.017C21.3531 22.5889 22.216 20.7709 23.6057 19.2125C24.9965 17.6542 26.7003 16.5695 28.717 15.9584L26.1503 4.50004H20.8337C20.3142 4.50004 19.8791 4.32404 19.5283 3.97204C19.1763 3.62126 19.0003 3.18615 19.0003 2.66671C19.0003 2.14726 19.1763 1.71154 19.5283 1.35954C19.8791 1.00876 20.3142 0.833374 20.8337 0.833374H26.1503C26.9753 0.833374 27.7313 1.10104 28.4182 1.63637C29.1063 2.17049 29.542 2.85004 29.7253 3.67504L33.2087 19.1667H31.8337C29.817 19.1667 28.0906 19.8848 26.6545 21.3209C25.2184 22.757 24.5003 24.4834 24.5003 26.5V28.3334H11.3003C10.9337 29.4028 10.2847 30.2816 9.35332 30.9697C8.42077 31.6566 7.35866 32 6.16699 32ZM31.8337 32C30.3059 32 29.0073 31.4653 27.9378 30.3959C26.8684 29.3264 26.3337 28.0278 26.3337 26.5C26.3337 24.9723 26.8684 23.6737 27.9378 22.6042C29.0073 21.5348 30.3059 21 31.8337 21C33.3614 21 34.66 21.5348 35.7295 22.6042C36.7989 23.6737 37.3337 24.9723 37.3337 26.5C37.3337 28.0278 36.7989 29.3264 35.7295 30.3959C34.66 31.4653 33.3614 32 31.8337 32ZM20.8337 41.1667L9.83366 35.6667H17.167V32L28.167 37.5H20.8337V41.1667Z" fill="#003478"/>
</svg>
